# MagicaVoxel @ Ephtracy

# group
o Glass2

# material
mtllib GlassBroken.mtl
usemtl palette

# normals
vn -1 0 0
vn 1 0 0
vn 0 0 1
vn 0 0 -1
vn 0 -1 0
vn 0 1 0

# texcoords
vt 0.00195312 0.5
vt 0.00585938 0.5
vt 0.00976562 0.5
vt 0.0136719 0.5
vt 0.291016 0.5
vt 0.294922 0.5

# verts
v -0.8 0 0.8
v -0.8 0 0.7
v -0.8 0 0.6
v -0.8 0 0.5
v -0.8 0 0.4
v -0.8 0 0.3
v -0.8 0 0.2
v -0.8 0 0.1
v -0.8 0 -0.2
v -0.8 0 -0.3
v -0.8 0 -0.7
v -0.8 0 -0.8
v -0.8 0.1 0.8
v -0.8 0.1 0.7
v -0.8 0.1 0.6
v -0.8 0.1 0.5
v -0.8 0.1 0.4
v -0.8 0.1 0.3
v -0.8 0.1 0.2
v -0.8 0.1 0.1
v -0.8 0.1 -0.2
v -0.8 0.1 -0.3
v -0.8 0.1 -0.7
v -0.8 0.1 -0.8
v -0.6 0 0.5
v -0.6 0 0.4
v -0.6 0 -0.1
v -0.6 0 -0.2
v -0.6 0 -0.3
v -0.6 0 -0.4
v -0.6 0 -0.6
v -0.6 0.1 0.5
v -0.6 0.1 0.4
v -0.6 0.1 -0.1
v -0.6 0.1 -0.2
v -0.6 0.1 -0.3
v -0.6 0.1 -0.4
v -0.6 0.1 -0.6
v -0.5 0 0.6
v -0.5 0 0.5
v -0.5 0 0.1
v -0.5 0 0
v -0.5 0 -0.2
v -0.5 0 -0.3
v -0.5 0.1 0.6
v -0.5 0.1 0.5
v -0.5 0.1 0.1
v -0.5 0.1 0
v -0.5 0.1 -0.2
v -0.5 0.1 -0.3
v -0.4 0 0.7
v -0.4 0 0.6
v -0.4 0 0
v -0.4 0 -0.1
v -0.4 0.1 0.7
v -0.4 0.1 0.6
v -0.4 0.1 0
v -0.4 0.1 -0.1
v -0.3 0 0.5
v -0.3 0 0.4
v -0.3 0 0.2
v -0.3 0 0.1
v -0.3 0 -0.2
v -0.3 0 -0.3
v -0.3 0 -0.6
v -0.3 0 -0.7
v -0.3 0.1 0.5
v -0.3 0.1 0.4
v -0.3 0.1 0.2
v -0.3 0.1 0.1
v -0.3 0.1 -0.2
v -0.3 0.1 -0.3
v -0.3 0.1 -0.6
v -0.3 0.1 -0.7
v -0.2 0 0.4
v -0.2 0 0.3
v -0.2 0 0.1
v -0.2 0 0
v -0.2 0 -0.1
v -0.2 0 -0.2
v -0.2 0 -0.4
v -0.2 0 -0.5
v -0.2 0 -0.6
v -0.2 0.1 0.4
v -0.2 0.1 0.3
v -0.2 0.1 0.1
v -0.2 0.1 0
v -0.2 0.1 -0.1
v -0.2 0.1 -0.2
v -0.2 0.1 -0.4
v -0.2 0.1 -0.5
v -0.2 0.1 -0.6
v -0.1 0 0.3
v -0.1 0 0.2
v -0.1 0 0.1
v -0.1 0 -0.2
v -0.1 0 -0.3
v -0.1 0 -0.4
v -0.1 0.1 0.3
v -0.1 0.1 0.2
v -0.1 0.1 0.1
v -0.1 0.1 -0.2
v -0.1 0.1 -0.3
v -0.1 0.1 -0.4
v 0 0 0.5
v 0 0 0.4
v 0 0 0
v 0 0 -0.1
v 0 0 -0.2
v 0 0.1 0.5
v 0 0.1 0.4
v 0 0.1 0
v 0 0.1 -0.1
v 0 0.1 -0.2
v 0.1 0 0.4
v 0.1 0 0.3
v 0.1 0.1 0.4
v 0.1 0.1 0.3
v 0.2 0 0.6
v 0.2 0 0.5
v 0.2 0 0
v 0.2 0 -0.1
v 0.2 0 -0.3
v 0.2 0 -0.4
v 0.2 0.1 0.6
v 0.2 0.1 0.5
v 0.2 0.1 0
v 0.2 0.1 -0.1
v 0.2 0.1 -0.3
v 0.2 0.1 -0.4
v 0.3 0 0.7
v 0.3 0 0.6
v 0.3 0 -0.2
v 0.3 0 -0.3
v 0.3 0 -0.5
v 0.3 0 -0.6
v 0.3 0 -0.7
v 0.3 0.1 0.7
v 0.3 0.1 0.6
v 0.3 0.1 -0.2
v 0.3 0.1 -0.3
v 0.3 0.1 -0.5
v 0.3 0.1 -0.6
v 0.3 0.1 -0.7
v 0.4 0 0.5
v 0.4 0 0.4
v 0.4 0 0.3
v 0.4 0 0.2
v 0.4 0 -0.3
v 0.4 0 -0.4
v 0.4 0 -0.5
v 0.4 0.1 0.5
v 0.4 0.1 0.4
v 0.4 0.1 0.3
v 0.4 0.1 0.2
v 0.4 0.1 -0.3
v 0.4 0.1 -0.4
v 0.4 0.1 -0.5
v 0.5 0 0.6
v 0.5 0 0.5
v 0.5 0 -0.2
v 0.5 0 -0.3
v 0.5 0.1 0.6
v 0.5 0.1 0.5
v 0.5 0.1 -0.2
v 0.5 0.1 -0.3
v 0.6 0 0.7
v 0.6 0 0.6
v 0.6 0 -0.1
v 0.6 0 -0.2
v 0.6 0 -0.6
v 0.6 0 -0.7
v 0.6 0.1 0.7
v 0.6 0.1 0.6
v 0.6 0.1 -0.1
v 0.6 0.1 -0.2
v 0.6 0.1 -0.6
v 0.6 0.1 -0.7
v 0.7 0 0.6
v 0.7 0 0.3
v 0.7 0 0.2
v 0.7 0 -0.1
v 0.7 0 -0.2
v 0.7 0 -0.3
v 0.7 0 -0.4
v 0.7 0 -0.5
v 0.7 0 -0.6
v 0.7 0.1 0.6
v 0.7 0.1 0.3
v 0.7 0.1 0.2
v 0.7 0.1 -0.1
v 0.7 0.1 -0.2
v 0.7 0.1 -0.3
v 0.7 0.1 -0.4
v 0.7 0.1 -0.5
v 0.7 0.1 -0.6
v -0.7 0 0.6
v -0.7 0 0.5
v -0.7 0 0.4
v -0.7 0 0.3
v -0.7 0 0.2
v -0.7 0 0.1
v -0.7 0 -0.2
v -0.7 0 -0.3
v -0.7 0 -0.6
v -0.7 0.1 0.6
v -0.7 0.1 0.5
v -0.7 0.1 0.4
v -0.7 0.1 0.3
v -0.7 0.1 0.2
v -0.7 0.1 0.1
v -0.7 0.1 -0.2
v -0.7 0.1 -0.3
v -0.7 0.1 -0.6
v -0.6 0 0.7
v -0.6 0 0.6
v -0.6 0 -0.2
v -0.6 0 -0.3
v -0.6 0 -0.6
v -0.6 0 -0.7
v -0.6 0.1 0.7
v -0.6 0.1 0.6
v -0.6 0.1 -0.2
v -0.6 0.1 -0.3
v -0.6 0.1 -0.6
v -0.6 0.1 -0.7
v -0.5 0 0.5
v -0.5 0 0.4
v -0.5 0 0.2
v -0.5 0 0.1
v -0.5 0 -0.3
v -0.5 0 -0.4
v -0.5 0 -0.6
v -0.5 0.1 0.5
v -0.5 0.1 0.4
v -0.5 0.1 0.2
v -0.5 0.1 0.1
v -0.5 0.1 -0.3
v -0.5 0.1 -0.4
v -0.5 0.1 -0.6
v -0.4 0 0.1
v -0.4 0 0
v -0.4 0 -0.1
v -0.4 0 -0.2
v -0.4 0 -0.3
v -0.4 0.1 0.1
v -0.4 0.1 0
v -0.4 0.1 -0.1
v -0.4 0.1 -0.2
v -0.4 0.1 -0.3
v -0.3 0 0.7
v -0.3 0 0.6
v -0.3 0 0.5
v -0.3 0.1 0.7
v -0.3 0.1 0.6
v -0.3 0.1 0.5
v -0.2 0 0.5
v -0.2 0 0.4
v -0.2 0 0.2
v -0.2 0 0.1
v -0.2 0 0
v -0.2 0 -0.1
v -0.2 0 -0.2
v -0.2 0 -0.3
v -0.2 0 -0.6
v -0.2 0 -0.7
v -0.2 0.1 0.5
v -0.2 0.1 0.4
v -0.2 0.1 0.2
v -0.2 0.1 0.1
v -0.2 0.1 0
v -0.2 0.1 -0.1
v -0.2 0.1 -0.2
v -0.2 0.1 -0.3
v -0.2 0.1 -0.6
v -0.2 0.1 -0.7
v -0.1 0 -0.1
v -0.1 0 -0.2
v -0.1 0 -0.4
v -0.1 0 -0.5
v -0.1 0 -0.6
v -0.1 0.1 -0.1
v -0.1 0.1 -0.2
v -0.1 0.1 -0.4
v -0.1 0.1 -0.5
v -0.1 0.1 -0.6
v 0 0 0.4
v 0 0 0.3
v 0 0 -0.2
v 0 0 -0.3
v 0 0 -0.4
v 0 0.1 0.4
v 0 0.1 0.3
v 0 0.1 -0.2
v 0 0.1 -0.3
v 0 0.1 -0.4
v 0.1 0 0.3
v 0.1 0 0.2
v 0.1 0 0
v 0.1 0 -0.1
v 0.1 0 -0.2
v 0.1 0.1 0.3
v 0.1 0.1 0.2
v 0.1 0.1 0
v 0.1 0.1 -0.1
v 0.1 0.1 -0.2
v 0.2 0 0.5
v 0.2 0 0.4
v 0.2 0 0.3
v 0.2 0 0.1
v 0.2 0 0
v 0.2 0.1 0.5
v 0.2 0.1 0.4
v 0.2 0.1 0.3
v 0.2 0.1 0.1
v 0.2 0.1 0
v 0.3 0 0.6
v 0.3 0 0.5
v 0.3 0 -0.3
v 0.3 0 -0.4
v 0.3 0.1 0.6
v 0.3 0.1 0.5
v 0.3 0.1 -0.3
v 0.3 0.1 -0.4
v 0.4 0 0.7
v 0.4 0 0.6
v 0.4 0 0.2
v 0.4 0 0.1
v 0.4 0 -0.2
v 0.4 0 -0.3
v 0.4 0 -0.6
v 0.4 0 -0.7
v 0.4 0.1 0.7
v 0.4 0.1 0.6
v 0.4 0.1 0.2
v 0.4 0.1 0.1
v 0.4 0.1 -0.2
v 0.4 0.1 -0.3
v 0.4 0.1 -0.6
v 0.4 0.1 -0.7
v 0.5 0 0.5
v 0.5 0 0.4
v 0.5 0 -0.4
v 0.5 0 -0.5
v 0.5 0 -0.6
v 0.5 0.1 0.5
v 0.5 0.1 0.4
v 0.5 0.1 -0.4
v 0.5 0.1 -0.5
v 0.5 0.1 -0.6
v 0.6 0 0.6
v 0.6 0 0.5
v 0.6 0 0
v 0.6 0 -0.1
v 0.6 0 -0.2
v 0.6 0 -0.3
v 0.6 0 -0.4
v 0.6 0.1 0.6
v 0.6 0.1 0.5
v 0.6 0.1 0
v 0.6 0.1 -0.1
v 0.6 0.1 -0.2
v 0.6 0.1 -0.3
v 0.6 0.1 -0.4
v 0.8 0 0.8
v 0.8 0 0.7
v 0.8 0 0.3
v 0.8 0 0.2
v 0.8 0 -0.1
v 0.8 0 -0.2
v 0.8 0 -0.3
v 0.8 0 -0.4
v 0.8 0 -0.5
v 0.8 0 -0.6
v 0.8 0 -0.7
v 0.8 0 -0.8
v 0.8 0.1 0.8
v 0.8 0.1 0.7
v 0.8 0.1 0.3
v 0.8 0.1 0.2
v 0.8 0.1 -0.1
v 0.8 0.1 -0.2
v 0.8 0.1 -0.3
v 0.8 0.1 -0.4
v 0.8 0.1 -0.5
v 0.8 0.1 -0.6
v 0.8 0.1 -0.7
v 0.8 0.1 -0.8
v -0.8 0 0.8
v -0.8 0.1 0.8
v -0.7 0 0.8
v -0.7 0.1 0.8
v -0.6 0 0.8
v -0.6 0.1 0.8
v -0.5 0 0.8
v -0.5 0.1 0.8
v -0.4 0 0.8
v -0.4 0.1 0.8
v -0.3 0 0.8
v -0.3 0.1 0.8
v -0.2 0 0.8
v -0.2 0.1 0.8
v -0.1 0 0.8
v -0.1 0.1 0.8
v 0.4 0 0.8
v 0.4 0.1 0.8
v 0.5 0 0.8
v 0.5 0.1 0.8
v 0.7 0 0.8
v 0.7 0.1 0.8
v 0.8 0 0.8
v 0.8 0.1 0.8
v -0.5 0 0.6
v -0.5 0.1 0.6
v -0.4 0 0.6
v -0.4 0.1 0.6
v 0.2 0 0.6
v 0.2 0.1 0.6
v 0.3 0 0.6
v 0.3 0.1 0.6
v 0.5 0 0.6
v 0.5 0.1 0.6
v 0.6 0 0.6
v 0.6 0.1 0.6
v -0.6 0 0.5
v -0.6 0.1 0.5
v -0.5 0 0.5
v -0.5 0.1 0.5
v -0.3 0 0.5
v -0.3 0.1 0.5
v -0.2 0 0.5
v -0.2 0.1 0.5
v 0 0 0.5
v 0 0.1 0.5
v 0.1 0 0.5
v 0.1 0.1 0.5
v 0.2 0 0.5
v 0.2 0.1 0.5
v 0.4 0 0.5
v 0.4 0.1 0.5
v 0.5 0 0.5
v 0.5 0.1 0.5
v -0.2 0 0.4
v -0.2 0.1 0.4
v -0.1 0 0.4
v -0.1 0.1 0.4
v 0 0 0.4
v 0 0.1 0.4
v 0 0 0.3
v 0 0.1 0.3
v 0.1 0 0.3
v 0.1 0.1 0.3
v 0.4 0 0.3
v 0.4 0.1 0.3
v 0.5 0 0.3
v 0.5 0.1 0.3
v 0.7 0 0.3
v 0.7 0.1 0.3
v -0.7 0 0.2
v -0.7 0.1 0.2
v -0.6 0 0.2
v -0.6 0.1 0.2
v -0.5 0 0.2
v -0.5 0.1 0.2
v -0.3 0 0.2
v -0.3 0.1 0.2
v -0.2 0 0.2
v -0.2 0.1 0.2
v 0.1 0 0.2
v 0.1 0.1 0.2
v 0.3 0 0.2
v 0.3 0.1 0.2
v 0.4 0 0.2
v 0.4 0.1 0.2
v -0.5 0 0.1
v -0.5 0.1 0.1
v -0.4 0 0.1
v -0.4 0.1 0.1
v -0.2 0 0.1
v -0.2 0.1 0.1
v -0.1 0 0.1
v -0.1 0.1 0.1
v -0.4 0 0
v -0.4 0.1 0
v -0.3 0 0
v -0.3 0.1 0
v -0.2 0 0
v -0.2 0.1 0
v 0.2 0 0
v 0.2 0.1 0
v 0.4 0 0
v 0.4 0.1 0
v 0.6 0 0
v 0.6 0.1 0
v -0.6 0 -0.1
v -0.6 0.1 -0.1
v -0.5 0 -0.1
v -0.5 0.1 -0.1
v -0.4 0 -0.1
v -0.4 0.1 -0.1
v -0.2 0 -0.1
v -0.2 0.1 -0.1
v -0.1 0 -0.1
v -0.1 0.1 -0.1
v 0.6 0 -0.1
v 0.6 0.1 -0.1
v 0.7 0 -0.1
v 0.7 0.1 -0.1
v -0.7 0 -0.2
v -0.7 0.1 -0.2
v -0.6 0 -0.2
v -0.6 0.1 -0.2
v -0.3 0 -0.2
v -0.3 0.1 -0.2
v -0.2 0 -0.2
v -0.2 0.1 -0.2
v -0.1 0 -0.2
v -0.1 0.1 -0.2
v 0 0 -0.2
v 0 0.1 -0.2
v 0.3 0 -0.2
v 0.3 0.1 -0.2
v 0.4 0 -0.2
v 0.4 0.1 -0.2
v 0.5 0 -0.2
v 0.5 0.1 -0.2
v 0.6 0 -0.2
v 0.6 0.1 -0.2
v -0.6 0 -0.3
v -0.6 0.1 -0.3
v -0.5 0 -0.3
v -0.5 0.1 -0.3
v 0.2 0 -0.3
v 0.2 0.1 -0.3
v 0.3 0 -0.3
v 0.3 0.1 -0.3
v 0.4 0 -0.3
v 0.4 0.1 -0.3
v 0.5 0 -0.3
v 0.5 0.1 -0.3
v -0.2 0 -0.4
v -0.2 0.1 -0.4
v -0.1 0 -0.4
v -0.1 0.1 -0.4
v 0.3 0 -0.5
v 0.3 0.1 -0.5
v 0.4 0 -0.5
v 0.4 0.1 -0.5
v -0.7 0 -0.6
v -0.7 0.1 -0.6
v -0.6 0 -0.6
v -0.6 0.1 -0.6
v -0.3 0 -0.6
v -0.3 0.1 -0.6
v -0.2 0 -0.6
v -0.2 0.1 -0.6
v 0.6 0 -0.6
v 0.6 0.1 -0.6
v 0.7 0 -0.6
v 0.7 0.1 -0.6
v -0.6 0 -0.7
v -0.6 0.1 -0.7
v -0.3 0 -0.7
v -0.3 0.1 -0.7
v -0.2 0 -0.7
v -0.2 0.1 -0.7
v 0.1 0 -0.7
v 0.1 0.1 -0.7
v 0.2 0 -0.7
v 0.2 0.1 -0.7
v 0.3 0 -0.7
v 0.3 0.1 -0.7
v 0.4 0 -0.7
v 0.4 0.1 -0.7
v 0.5 0 -0.7
v 0.5 0.1 -0.7
v 0.6 0 -0.7
v 0.6 0.1 -0.7
v -0.6 0 0.7
v -0.6 0.1 0.7
v -0.5 0 0.7
v -0.5 0.1 0.7
v -0.4 0 0.7
v -0.4 0.1 0.7
v -0.3 0 0.7
v -0.3 0.1 0.7
v -0.2 0 0.7
v -0.2 0.1 0.7
v -0.1 0 0.7
v -0.1 0.1 0.7
v 0.3 0 0.7
v 0.3 0.1 0.7
v 0.4 0 0.7
v 0.4 0.1 0.7
v 0.5 0 0.7
v 0.5 0.1 0.7
v 0.6 0 0.7
v 0.6 0.1 0.7
v -0.7 0 0.6
v -0.7 0.1 0.6
v -0.6 0 0.6
v -0.6 0.1 0.6
v 0.3 0 0.6
v 0.3 0.1 0.6
v 0.4 0 0.6
v 0.4 0.1 0.6
v 0.6 0 0.6
v 0.6 0.1 0.6
v 0.7 0 0.6
v 0.7 0.1 0.6
v -0.5 0 0.5
v -0.5 0.1 0.5
v -0.4 0 0.5
v -0.4 0.1 0.5
v -0.3 0 0.5
v -0.3 0.1 0.5
v 0.2 0 0.5
v 0.2 0.1 0.5
v 0.3 0 0.5
v 0.3 0.1 0.5
v 0.5 0 0.5
v 0.5 0.1 0.5
v 0.6 0 0.5
v 0.6 0.1 0.5
v -0.6 0 0.4
v -0.6 0.1 0.4
v -0.5 0 0.4
v -0.5 0.1 0.4
v -0.3 0 0.4
v -0.3 0.1 0.4
v -0.2 0 0.4
v -0.2 0.1 0.4
v 0 0 0.4
v 0 0.1 0.4
v 0.1 0 0.4
v 0.1 0.1 0.4
v 0.4 0 0.4
v 0.4 0.1 0.4
v 0.5 0 0.4
v 0.5 0.1 0.4
v -0.2 0 0.3
v -0.2 0.1 0.3
v -0.1 0 0.3
v -0.1 0.1 0.3
v 0.1 0 0.3
v 0.1 0.1 0.3
v 0.2 0 0.3
v 0.2 0.1 0.3
v 0.4 0 0.2
v 0.4 0.1 0.2
v 0.5 0 0.2
v 0.5 0.1 0.2
v 0.7 0 0.2
v 0.7 0.1 0.2
v -0.7 0 0.1
v -0.7 0.1 0.1
v -0.6 0 0.1
v -0.6 0.1 0.1
v -0.5 0 0.1
v -0.5 0.1 0.1
v -0.3 0 0.1
v -0.3 0.1 0.1
v -0.2 0 0.1
v -0.2 0.1 0.1
v 0.2 0 0.1
v 0.2 0.1 0.1
v 0.3 0 0.1
v 0.3 0.1 0.1
v 0.4 0 0.1
v 0.4 0.1 0.1
v -0.5 0 0
v -0.5 0.1 0
v -0.4 0 0
v -0.4 0.1 0
v -0.2 0 0
v -0.2 0.1 0
v -0.1 0 0
v -0.1 0.1 0
v 0 0 0
v 0 0.1 0
v 0.1 0 0
v 0.1 0.1 0
v 0.2 0 0
v 0.2 0.1 0
v -0.4 0 -0.1
v -0.4 0.1 -0.1
v -0.3 0 -0.1
v -0.3 0.1 -0.1
v -0.2 0 -0.1
v -0.2 0.1 -0.1
v 0.2 0 -0.1
v 0.2 0.1 -0.1
v 0.4 0 -0.1
v 0.4 0.1 -0.1
v 0.6 0 -0.1
v 0.6 0.1 -0.1
v -0.6 0 -0.2
v -0.6 0.1 -0.2
v -0.5 0 -0.2
v -0.5 0.1 -0.2
v -0.2 0 -0.2
v -0.2 0.1 -0.2
v -0.1 0 -0.2
v -0.1 0.1 -0.2
v 0 0 -0.2
v 0 0.1 -0.2
v 0.1 0 -0.2
v 0.1 0.1 -0.2
v 0.6 0 -0.2
v 0.6 0.1 -0.2
v 0.7 0 -0.2
v 0.7 0.1 -0.2
v -0.7 0 -0.3
v -0.7 0.1 -0.3
v -0.6 0 -0.3
v -0.6 0.1 -0.3
v -0.5 0 -0.3
v -0.5 0.1 -0.3
v -0.4 0 -0.3
v -0.4 0.1 -0.3
v -0.3 0 -0.3
v -0.3 0.1 -0.3
v -0.2 0 -0.3
v -0.2 0.1 -0.3
v 0.3 0 -0.3
v 0.3 0.1 -0.3
v 0.4 0 -0.3
v 0.4 0.1 -0.3
v -0.1 0 -0.4
v -0.1 0.1 -0.4
v 0 0 -0.4
v 0 0.1 -0.4
v 0.2 0 -0.4
v 0.2 0.1 -0.4
v 0.3 0 -0.4
v 0.3 0.1 -0.4
v 0.5 0 -0.4
v 0.5 0.1 -0.4
v 0.6 0 -0.4
v 0.6 0.1 -0.4
v -0.6 0 -0.6
v -0.6 0.1 -0.6
v -0.5 0 -0.6
v -0.5 0.1 -0.6
v -0.2 0 -0.6
v -0.2 0.1 -0.6
v -0.1 0 -0.6
v -0.1 0.1 -0.6
v 0.4 0 -0.6
v 0.4 0.1 -0.6
v 0.5 0 -0.6
v 0.5 0.1 -0.6
v -0.8 0 -0.8
v -0.8 0.1 -0.8
v -0.7 0 -0.8
v -0.7 0.1 -0.8
v -0.6 0 -0.8
v -0.6 0.1 -0.8
v -0.3 0 -0.8
v -0.3 0.1 -0.8
v -0.2 0 -0.8
v -0.2 0.1 -0.8
v 0.1 0 -0.8
v 0.1 0.1 -0.8
v 0.2 0 -0.8
v 0.2 0.1 -0.8
v 0.3 0 -0.8
v 0.3 0.1 -0.8
v 0.4 0 -0.8
v 0.4 0.1 -0.8
v 0.5 0 -0.8
v 0.5 0.1 -0.8
v 0.6 0 -0.8
v 0.6 0.1 -0.8
v 0.7 0 -0.8
v 0.7 0.1 -0.8
v 0.8 0 -0.8
v 0.8 0.1 -0.8
v -0.8 0 0.8
v -0.7 0 0.8
v -0.6 0 0.8
v -0.5 0 0.8
v -0.4 0 0.8
v -0.3 0 0.8
v -0.2 0 0.8
v -0.1 0 0.8
v 0.4 0 0.8
v 0.5 0 0.8
v 0.7 0 0.8
v 0.8 0 0.8
v -0.8 0 0.7
v -0.7 0 0.7
v -0.6 0 0.7
v -0.5 0 0.7
v -0.4 0 0.7
v -0.3 0 0.7
v -0.2 0 0.7
v -0.1 0 0.7
v 0.3 0 0.7
v 0.4 0 0.7
v 0.5 0 0.7
v 0.6 0 0.7
v 0.7 0 0.7
v 0.8 0 0.7
v -0.8 0 0.6
v -0.7 0 0.6
v -0.6 0 0.6
v -0.5 0 0.6
v -0.4 0 0.6
v -0.3 0 0.6
v 0.2 0 0.6
v 0.3 0 0.6
v 0.4 0 0.6
v 0.5 0 0.6
v 0.6 0 0.6
v 0.7 0 0.6
v -0.8 0 0.5
v -0.7 0 0.5
v -0.6 0 0.5
v -0.5 0 0.5
v -0.4 0 0.5
v -0.3 0 0.5
v -0.2 0 0.5
v 0 0 0.5
v 0.1 0 0.5
v 0.2 0 0.5
v 0.3 0 0.5
v 0.4 0 0.5
v 0.5 0 0.5
v 0.6 0 0.5
v -0.8 0 0.4
v -0.7 0 0.4
v -0.6 0 0.4
v -0.5 0 0.4
v -0.3 0 0.4
v -0.2 0 0.4
v -0.1 0 0.4
v 0 0 0.4
v 0.1 0 0.4
v 0.2 0 0.4
v 0.4 0 0.4
v 0.5 0 0.4
v -0.8 0 0.3
v -0.7 0 0.3
v -0.2 0 0.3
v -0.1 0 0.3
v 0 0 0.3
v 0.1 0 0.3
v 0.2 0 0.3
v 0.4 0 0.3
v 0.5 0 0.3
v 0.7 0 0.3
v 0.8 0 0.3
v -0.8 0 0.2
v -0.7 0 0.2
v -0.6 0 0.2
v -0.5 0 0.2
v -0.3 0 0.2
v -0.2 0 0.2
v -0.1 0 0.2
v 0 0 0.2
v 0.1 0 0.2
v 0.3 0 0.2
v 0.4 0 0.2
v 0.5 0 0.2
v 0.7 0 0.2
v 0.8 0 0.2
v -0.8 0 0.1
v -0.7 0 0.1
v -0.6 0 0.1
v -0.5 0 0.1
v -0.4 0 0.1
v -0.3 0 0.1
v -0.2 0 0.1
v -0.1 0 0.1
v 0 0 0.1
v 0.1 0 0.1
v 0.2 0 0.1
v 0.3 0 0.1
v 0.4 0 0.1
v -0.5 0 0
v -0.4 0 0
v -0.3 0 0
v -0.2 0 0
v -0.1 0 0
v 0 0 0
v 0.1 0 0
v 0.2 0 0
v 0.4 0 0
v 0.6 0 0
v -0.6 0 -0.1
v -0.5 0 -0.1
v -0.4 0 -0.1
v -0.3 0 -0.1
v -0.2 0 -0.1
v -0.1 0 -0.1
v 0 0 -0.1
v 0.1 0 -0.1
v 0.2 0 -0.1
v 0.4 0 -0.1
v 0.6 0 -0.1
v 0.7 0 -0.1
v 0.8 0 -0.1
v -0.8 0 -0.2
v -0.7 0 -0.2
v -0.6 0 -0.2
v -0.5 0 -0.2
v -0.4 0 -0.2
v -0.3 0 -0.2
v -0.2 0 -0.2
v -0.1 0 -0.2
v 0 0 -0.2
v 0.1 0 -0.2
v 0.3 0 -0.2
v 0.4 0 -0.2
v 0.5 0 -0.2
v 0.6 0 -0.2
v 0.7 0 -0.2
v 0.8 0 -0.2
v -0.8 0 -0.3
v -0.7 0 -0.3
v -0.6 0 -0.3
v -0.5 0 -0.3
v -0.4 0 -0.3
v -0.3 0 -0.3
v -0.2 0 -0.3
v -0.1 0 -0.3
v 0 0 -0.3
v 0.2 0 -0.3
v 0.3 0 -0.3
v 0.4 0 -0.3
v 0.5 0 -0.3
v 0.6 0 -0.3
v 0.7 0 -0.3
v 0.8 0 -0.3
v -0.6 0 -0.4
v -0.5 0 -0.4
v -0.2 0 -0.4
v -0.1 0 -0.4
v 0 0 -0.4
v 0.2 0 -0.4
v 0.3 0 -0.4
v 0.4 0 -0.4
v 0.5 0 -0.4
v 0.6 0 -0.4
v 0.7 0 -0.4
v 0.8 0 -0.4
v -0.2 0 -0.5
v -0.1 0 -0.5
v 0.3 0 -0.5
v 0.4 0 -0.5
v 0.5 0 -0.5
v 0.7 0 -0.5
v 0.8 0 -0.5
v -0.7 0 -0.6
v -0.6 0 -0.6
v -0.5 0 -0.6
v -0.3 0 -0.6
v -0.2 0 -0.6
v -0.1 0 -0.6
v 0.3 0 -0.6
v 0.4 0 -0.6
v 0.5 0 -0.6
v 0.6 0 -0.6
v 0.7 0 -0.6
v 0.8 0 -0.6
v -0.8 0 -0.7
v -0.7 0 -0.7
v -0.6 0 -0.7
v -0.3 0 -0.7
v -0.2 0 -0.7
v 0.1 0 -0.7
v 0.2 0 -0.7
v 0.3 0 -0.7
v 0.4 0 -0.7
v 0.5 0 -0.7
v 0.6 0 -0.7
v 0.7 0 -0.7
v 0.8 0 -0.7
v -0.8 0 -0.8
v -0.7 0 -0.8
v -0.6 0 -0.8
v -0.3 0 -0.8
v -0.2 0 -0.8
v 0.1 0 -0.8
v 0.2 0 -0.8
v 0.3 0 -0.8
v 0.4 0 -0.8
v 0.5 0 -0.8
v 0.6 0 -0.8
v 0.7 0 -0.8
v 0.8 0 -0.8
v -0.8 0.1 0.8
v -0.7 0.1 0.8
v -0.6 0.1 0.8
v -0.5 0.1 0.8
v -0.4 0.1 0.8
v -0.3 0.1 0.8
v -0.2 0.1 0.8
v -0.1 0.1 0.8
v 0.4 0.1 0.8
v 0.5 0.1 0.8
v 0.7 0.1 0.8
v 0.8 0.1 0.8
v -0.8 0.1 0.7
v -0.7 0.1 0.7
v -0.6 0.1 0.7
v -0.5 0.1 0.7
v -0.4 0.1 0.7
v -0.3 0.1 0.7
v -0.2 0.1 0.7
v -0.1 0.1 0.7
v 0.3 0.1 0.7
v 0.4 0.1 0.7
v 0.5 0.1 0.7
v 0.6 0.1 0.7
v 0.7 0.1 0.7
v 0.8 0.1 0.7
v -0.8 0.1 0.6
v -0.7 0.1 0.6
v -0.6 0.1 0.6
v -0.5 0.1 0.6
v -0.4 0.1 0.6
v -0.3 0.1 0.6
v 0.2 0.1 0.6
v 0.3 0.1 0.6
v 0.4 0.1 0.6
v 0.5 0.1 0.6
v 0.6 0.1 0.6
v 0.7 0.1 0.6
v -0.8 0.1 0.5
v -0.7 0.1 0.5
v -0.6 0.1 0.5
v -0.5 0.1 0.5
v -0.4 0.1 0.5
v -0.3 0.1 0.5
v -0.2 0.1 0.5
v 0 0.1 0.5
v 0.1 0.1 0.5
v 0.2 0.1 0.5
v 0.3 0.1 0.5
v 0.4 0.1 0.5
v 0.5 0.1 0.5
v 0.6 0.1 0.5
v -0.8 0.1 0.4
v -0.7 0.1 0.4
v -0.6 0.1 0.4
v -0.5 0.1 0.4
v -0.3 0.1 0.4
v -0.2 0.1 0.4
v -0.1 0.1 0.4
v 0 0.1 0.4
v 0.1 0.1 0.4
v 0.2 0.1 0.4
v 0.4 0.1 0.4
v 0.5 0.1 0.4
v -0.8 0.1 0.3
v -0.7 0.1 0.3
v -0.2 0.1 0.3
v -0.1 0.1 0.3
v 0 0.1 0.3
v 0.1 0.1 0.3
v 0.2 0.1 0.3
v 0.4 0.1 0.3
v 0.5 0.1 0.3
v 0.7 0.1 0.3
v 0.8 0.1 0.3
v -0.8 0.1 0.2
v -0.7 0.1 0.2
v -0.6 0.1 0.2
v -0.5 0.1 0.2
v -0.3 0.1 0.2
v -0.2 0.1 0.2
v -0.1 0.1 0.2
v 0 0.1 0.2
v 0.1 0.1 0.2
v 0.3 0.1 0.2
v 0.4 0.1 0.2
v 0.5 0.1 0.2
v 0.7 0.1 0.2
v 0.8 0.1 0.2
v -0.8 0.1 0.1
v -0.7 0.1 0.1
v -0.6 0.1 0.1
v -0.5 0.1 0.1
v -0.4 0.1 0.1
v -0.3 0.1 0.1
v -0.2 0.1 0.1
v -0.1 0.1 0.1
v 0 0.1 0.1
v 0.1 0.1 0.1
v 0.2 0.1 0.1
v 0.3 0.1 0.1
v 0.4 0.1 0.1
v -0.5 0.1 0
v -0.4 0.1 0
v -0.3 0.1 0
v -0.2 0.1 0
v -0.1 0.1 0
v 0 0.1 0
v 0.1 0.1 0
v 0.2 0.1 0
v 0.4 0.1 0
v 0.6 0.1 0
v -0.6 0.1 -0.1
v -0.5 0.1 -0.1
v -0.4 0.1 -0.1
v -0.3 0.1 -0.1
v -0.2 0.1 -0.1
v -0.1 0.1 -0.1
v 0 0.1 -0.1
v 0.1 0.1 -0.1
v 0.2 0.1 -0.1
v 0.4 0.1 -0.1
v 0.6 0.1 -0.1
v 0.7 0.1 -0.1
v 0.8 0.1 -0.1
v -0.8 0.1 -0.2
v -0.7 0.1 -0.2
v -0.6 0.1 -0.2
v -0.5 0.1 -0.2
v -0.4 0.1 -0.2
v -0.3 0.1 -0.2
v -0.2 0.1 -0.2
v -0.1 0.1 -0.2
v 0 0.1 -0.2
v 0.1 0.1 -0.2
v 0.3 0.1 -0.2
v 0.4 0.1 -0.2
v 0.5 0.1 -0.2
v 0.6 0.1 -0.2
v 0.7 0.1 -0.2
v 0.8 0.1 -0.2
v -0.8 0.1 -0.3
v -0.7 0.1 -0.3
v -0.6 0.1 -0.3
v -0.5 0.1 -0.3
v -0.4 0.1 -0.3
v -0.3 0.1 -0.3
v -0.2 0.1 -0.3
v -0.1 0.1 -0.3
v 0 0.1 -0.3
v 0.2 0.1 -0.3
v 0.3 0.1 -0.3
v 0.4 0.1 -0.3
v 0.5 0.1 -0.3
v 0.6 0.1 -0.3
v 0.7 0.1 -0.3
v 0.8 0.1 -0.3
v -0.6 0.1 -0.4
v -0.5 0.1 -0.4
v -0.2 0.1 -0.4
v -0.1 0.1 -0.4
v 0 0.1 -0.4
v 0.2 0.1 -0.4
v 0.3 0.1 -0.4
v 0.4 0.1 -0.4
v 0.5 0.1 -0.4
v 0.6 0.1 -0.4
v 0.7 0.1 -0.4
v 0.8 0.1 -0.4
v -0.2 0.1 -0.5
v -0.1 0.1 -0.5
v 0.3 0.1 -0.5
v 0.4 0.1 -0.5
v 0.5 0.1 -0.5
v 0.7 0.1 -0.5
v 0.8 0.1 -0.5
v -0.7 0.1 -0.6
v -0.6 0.1 -0.6
v -0.5 0.1 -0.6
v -0.3 0.1 -0.6
v -0.2 0.1 -0.6
v -0.1 0.1 -0.6
v 0.3 0.1 -0.6
v 0.4 0.1 -0.6
v 0.5 0.1 -0.6
v 0.6 0.1 -0.6
v 0.7 0.1 -0.6
v 0.8 0.1 -0.6
v -0.8 0.1 -0.7
v -0.7 0.1 -0.7
v -0.6 0.1 -0.7
v -0.3 0.1 -0.7
v -0.2 0.1 -0.7
v 0.1 0.1 -0.7
v 0.2 0.1 -0.7
v 0.3 0.1 -0.7
v 0.4 0.1 -0.7
v 0.5 0.1 -0.7
v 0.6 0.1 -0.7
v 0.7 0.1 -0.7
v 0.8 0.1 -0.7
v -0.8 0.1 -0.8
v -0.7 0.1 -0.8
v -0.6 0.1 -0.8
v -0.3 0.1 -0.8
v -0.2 0.1 -0.8
v 0.1 0.1 -0.8
v 0.2 0.1 -0.8
v 0.3 0.1 -0.8
v 0.4 0.1 -0.8
v 0.5 0.1 -0.8
v 0.6 0.1 -0.8
v 0.7 0.1 -0.8
v 0.8 0.1 -0.8

# faces
f 13/3/1 2/3/1 1/3/1
f 14/4/1 3/4/1 2/4/1
f 14/3/1 2/3/1 13/3/1
f 15/3/1 4/3/1 3/3/1
f 15/4/1 3/4/1 14/4/1
f 16/4/1 5/4/1 4/4/1
f 16/3/1 4/3/1 15/3/1
f 17/3/1 6/3/1 5/3/1
f 17/4/1 5/4/1 16/4/1
f 18/6/1 7/6/1 6/6/1
f 18/3/1 6/3/1 17/3/1
f 19/3/1 8/3/1 7/3/1
f 19/6/1 7/6/1 18/6/1
f 20/4/1 9/4/1 8/4/1
f 20/3/1 8/3/1 19/3/1
f 21/6/1 10/6/1 9/6/1
f 21/4/1 9/4/1 20/4/1
f 22/4/1 11/4/1 10/4/1
f 22/6/1 10/6/1 21/6/1
f 23/3/1 12/3/1 11/3/1
f 23/4/1 11/4/1 22/4/1
f 24/3/1 12/3/1 23/3/1
f 32/1/1 26/1/1 25/1/1
f 33/1/1 26/1/1 32/1/1
f 34/5/1 28/5/1 27/5/1
f 35/5/1 28/5/1 34/5/1
f 36/6/1 30/6/1 29/6/1
f 37/5/1 31/5/1 30/5/1
f 37/6/1 30/6/1 36/6/1
f 38/5/1 31/5/1 37/5/1
f 45/1/1 40/1/1 39/1/1
f 46/1/1 40/1/1 45/1/1
f 47/6/1 42/6/1 41/6/1
f 48/6/1 42/6/1 47/6/1
f 49/5/1 44/5/1 43/5/1
f 50/5/1 44/5/1 49/5/1
f 55/5/1 52/5/1 51/5/1
f 56/5/1 52/5/1 55/5/1
f 57/5/1 54/5/1 53/5/1
f 58/5/1 54/5/1 57/5/1
f 67/6/1 60/6/1 59/6/1
f 68/6/1 60/6/1 67/6/1
f 69/1/1 62/1/1 61/1/1
f 70/1/1 62/1/1 69/1/1
f 71/1/1 64/1/1 63/1/1
f 72/1/1 64/1/1 71/1/1
f 73/5/1 66/5/1 65/5/1
f 74/5/1 66/5/1 73/5/1
f 84/5/1 76/5/1 75/5/1
f 85/5/1 76/5/1 84/5/1
f 86/5/1 78/5/1 77/5/1
f 87/5/1 78/5/1 86/5/1
f 88/1/1 80/1/1 79/1/1
f 89/1/1 80/1/1 88/1/1
f 90/6/1 82/6/1 81/6/1
f 91/5/1 83/5/1 82/5/1
f 91/6/1 82/6/1 90/6/1
f 92/5/1 83/5/1 91/5/1
f 99/6/1 94/6/1 93/6/1
f 100/5/1 95/5/1 94/5/1
f 100/6/1 94/6/1 99/6/1
f 101/5/1 95/5/1 100/5/1
f 102/6/1 97/6/1 96/6/1
f 103/5/1 98/5/1 97/5/1
f 103/6/1 97/6/1 102/6/1
f 104/5/1 98/5/1 103/5/1
f 110/1/1 106/1/1 105/1/1
f 111/1/1 106/1/1 110/1/1
f 112/6/1 108/6/1 107/6/1
f 113/5/1 109/5/1 108/5/1
f 113/6/1 108/6/1 112/6/1
f 114/5/1 109/5/1 113/5/1
f 117/6/1 116/6/1 115/6/1
f 118/6/1 116/6/1 117/6/1
f 125/6/1 120/6/1 119/6/1
f 126/6/1 120/6/1 125/6/1
f 127/6/1 122/6/1 121/6/1
f 128/6/1 122/6/1 127/6/1
f 129/1/1 124/1/1 123/1/1
f 130/1/1 124/1/1 129/1/1
f 138/5/1 132/5/1 131/5/1
f 139/5/1 132/5/1 138/5/1
f 140/1/1 134/1/1 133/1/1
f 141/1/1 134/1/1 140/1/1
f 142/6/1 136/6/1 135/6/1
f 143/5/1 137/5/1 136/5/1
f 143/6/1 136/6/1 142/6/1
f 144/5/1 137/5/1 143/5/1
f 152/1/1 146/1/1 145/1/1
f 153/1/1 146/1/1 152/1/1
f 154/6/1 148/6/1 147/6/1
f 155/6/1 148/6/1 154/6/1
f 156/6/1 150/6/1 149/6/1
f 157/5/1 151/5/1 150/5/1
f 157/6/1 150/6/1 156/6/1
f 158/5/1 151/5/1 157/5/1
f 163/1/1 160/1/1 159/1/1
f 164/1/1 160/1/1 163/1/1
f 165/6/1 162/6/1 161/6/1
f 166/6/1 162/6/1 165/6/1
f 173/3/1 168/3/1 167/3/1
f 174/3/1 168/3/1 173/3/1
f 175/5/1 170/5/1 169/5/1
f 176/5/1 170/5/1 175/5/1
f 177/3/1 172/3/1 171/3/1
f 178/3/1 172/3/1 177/3/1
f 188/4/1 180/4/1 179/4/1
f 189/4/1 180/4/1 188/4/1
f 190/4/1 182/4/1 181/4/1
f 191/4/1 182/4/1 190/4/1
f 192/2/1 184/2/1 183/2/1
f 193/3/1 185/3/1 184/3/1
f 193/2/1 184/2/1 192/2/1
f 194/4/1 186/4/1 185/4/1
f 194/3/1 185/3/1 193/3/1
f 195/3/1 187/3/1 186/3/1
f 195/4/1 186/4/1 194/4/1
f 196/3/1 187/3/1 195/3/1
f 197/3/2 198/3/2 206/3/2
f 198/4/2 199/4/2 207/4/2
f 206/3/2 198/3/2 207/3/2
f 199/3/2 200/3/2 208/3/2
f 207/4/2 199/4/2 208/4/2
f 200/6/2 201/6/2 209/6/2
f 208/3/2 200/3/2 209/3/2
f 209/6/2 201/6/2 210/6/2
f 202/4/2 203/4/2 211/4/2
f 211/4/2 203/4/2 212/4/2
f 204/4/2 205/4/2 213/4/2
f 213/4/2 205/4/2 214/4/2
f 215/3/2 216/3/2 221/3/2
f 221/3/2 216/3/2 222/3/2
f 217/6/2 218/6/2 223/6/2
f 223/6/2 218/6/2 224/6/2
f 219/5/2 220/5/2 225/5/2
f 225/5/2 220/5/2 226/5/2
f 227/1/2 228/1/2 234/1/2
f 234/1/2 228/1/2 235/1/2
f 229/6/2 230/6/2 236/6/2
f 236/6/2 230/6/2 237/6/2
f 231/6/2 232/6/2 238/6/2
f 232/5/2 233/5/2 239/5/2
f 238/6/2 232/6/2 239/6/2
f 239/5/2 233/5/2 240/5/2
f 241/6/2 242/6/2 246/6/2
f 246/6/2 242/6/2 247/6/2
f 243/6/2 244/6/2 248/6/2
f 244/5/2 245/5/2 249/5/2
f 248/6/2 244/6/2 249/6/2
f 249/5/2 245/5/2 250/5/2
f 251/5/2 252/5/2 254/5/2
f 252/6/2 253/6/2 255/6/2
f 254/5/2 252/5/2 255/5/2
f 255/6/2 253/6/2 256/6/2
f 257/6/2 258/6/2 267/6/2
f 267/6/2 258/6/2 268/6/2
f 259/1/2 260/1/2 269/1/2
f 269/1/2 260/1/2 270/1/2
f 261/6/2 262/6/2 271/6/2
f 271/6/2 262/6/2 272/6/2
f 263/1/2 264/1/2 273/1/2
f 273/1/2 264/1/2 274/1/2
f 265/5/2 266/5/2 275/5/2
f 275/5/2 266/5/2 276/5/2
f 277/1/2 278/1/2 282/1/2
f 282/1/2 278/1/2 283/1/2
f 279/6/2 280/6/2 284/6/2
f 280/5/2 281/5/2 285/5/2
f 284/6/2 280/6/2 285/6/2
f 285/5/2 281/5/2 286/5/2
f 287/1/2 288/1/2 292/1/2
f 292/1/2 288/1/2 293/1/2
f 289/6/2 290/6/2 294/6/2
f 290/5/2 291/5/2 295/5/2
f 294/6/2 290/6/2 295/6/2
f 295/5/2 291/5/2 296/5/2
f 297/5/2 298/5/2 302/5/2
f 302/5/2 298/5/2 303/5/2
f 299/6/2 300/6/2 304/6/2
f 300/5/2 301/5/2 305/5/2
f 304/6/2 300/6/2 305/6/2
f 305/5/2 301/5/2 306/5/2
f 307/5/2 308/5/2 312/5/2
f 308/6/2 309/6/2 313/6/2
f 312/5/2 308/5/2 313/5/2
f 313/6/2 309/6/2 314/6/2
f 310/5/2 311/5/2 315/5/2
f 315/5/2 311/5/2 316/5/2
f 317/6/2 318/6/2 321/6/2
f 321/6/2 318/6/2 322/6/2
f 319/1/2 320/1/2 323/1/2
f 323/1/2 320/1/2 324/1/2
f 325/5/2 326/5/2 333/5/2
f 333/5/2 326/5/2 334/5/2
f 327/5/2 328/5/2 335/5/2
f 335/5/2 328/5/2 336/5/2
f 329/1/2 330/1/2 337/1/2
f 337/1/2 330/1/2 338/1/2
f 331/5/2 332/5/2 339/5/2
f 339/5/2 332/5/2 340/5/2
f 341/1/2 342/1/2 346/1/2
f 346/1/2 342/1/2 347/1/2
f 343/5/2 344/5/2 348/5/2
f 344/1/2 345/1/2 349/1/2
f 348/5/2 344/5/2 349/5/2
f 349/1/2 345/1/2 350/1/2
f 351/1/2 352/1/2 358/1/2
f 358/1/2 352/1/2 359/1/2
f 353/5/2 354/5/2 360/5/2
f 360/5/2 354/5/2 361/5/2
f 355/6/2 356/6/2 362/6/2
f 356/1/2 357/1/2 363/1/2
f 362/6/2 356/6/2 363/6/2
f 363/1/2 357/1/2 364/1/2
f 365/3/2 366/3/2 377/3/2
f 366/4/2 367/4/2 378/4/2
f 377/3/2 366/3/2 378/3/2
f 367/6/2 368/6/2 379/6/2
f 378/4/2 367/4/2 379/4/2
f 368/4/2 369/4/2 380/4/2
f 379/6/2 368/6/2 380/6/2
f 369/6/2 370/6/2 381/6/2
f 380/4/2 369/4/2 381/4/2
f 370/2/2 371/2/2 382/2/2
f 381/6/2 370/6/2 382/6/2
f 371/3/2 372/3/2 383/3/2
f 382/2/2 371/2/2 383/2/2
f 372/4/2 373/4/2 384/4/2
f 383/3/2 372/3/2 384/3/2
f 373/3/2 374/3/2 385/3/2
f 384/4/2 373/4/2 385/4/2
f 374/4/2 375/4/2 386/4/2
f 385/3/2 374/3/2 386/3/2
f 375/3/2 376/3/2 387/3/2
f 386/4/2 375/4/2 387/4/2
f 387/3/2 376/3/2 388/3/2
f 391/3/3 390/3/3 389/3/3
f 392/3/3 390/3/3 391/3/3
f 393/4/3 392/4/3 391/4/3
f 394/4/3 392/4/3 393/4/3
f 395/3/3 394/3/3 393/3/3
f 396/3/3 394/3/3 395/3/3
f 397/6/3 396/6/3 395/6/3
f 398/6/3 396/6/3 397/6/3
f 399/3/3 398/3/3 397/3/3
f 400/3/3 398/3/3 399/3/3
f 401/2/3 400/2/3 399/2/3
f 402/2/3 400/2/3 401/2/3
f 403/3/3 402/3/3 401/3/3
f 404/3/3 402/3/3 403/3/3
f 405/4/3 404/4/3 403/4/3
f 406/4/3 404/4/3 405/4/3
f 407/6/3 406/6/3 405/6/3
f 408/6/3 406/6/3 407/6/3
f 409/4/3 408/4/3 407/4/3
f 410/4/3 408/4/3 409/4/3
f 411/3/3 410/3/3 409/3/3
f 412/3/3 410/3/3 411/3/3
f 415/1/3 414/1/3 413/1/3
f 416/1/3 414/1/3 415/1/3
f 419/6/3 418/6/3 417/6/3
f 420/6/3 418/6/3 419/6/3
f 423/1/3 422/1/3 421/1/3
f 424/1/3 422/1/3 423/1/3
f 427/1/3 426/1/3 425/1/3
f 428/1/3 426/1/3 427/1/3
f 431/6/3 430/6/3 429/6/3
f 432/6/3 430/6/3 431/6/3
f 435/1/3 434/1/3 433/1/3
f 436/1/3 434/1/3 435/1/3
f 437/5/3 436/5/3 435/5/3
f 438/5/3 436/5/3 437/5/3
f 441/1/3 440/1/3 439/1/3
f 442/1/3 440/1/3 441/1/3
f 445/5/3 444/5/3 443/5/3
f 446/5/3 444/5/3 445/5/3
f 447/1/3 446/1/3 445/1/3
f 448/1/3 446/1/3 447/1/3
f 451/5/3 450/5/3 449/5/3
f 452/5/3 450/5/3 451/5/3
f 455/6/3 454/6/3 453/6/3
f 456/6/3 454/6/3 455/6/3
f 457/5/3 456/5/3 455/5/3
f 458/5/3 456/5/3 457/5/3
f 461/5/3 460/5/3 459/5/3
f 462/5/3 460/5/3 461/5/3
f 463/6/3 462/6/3 461/6/3
f 464/6/3 462/6/3 463/6/3
f 467/1/3 466/1/3 465/1/3
f 468/1/3 466/1/3 467/1/3
f 471/6/3 470/6/3 469/6/3
f 472/6/3 470/6/3 471/6/3
f 473/5/3 472/5/3 471/5/3
f 474/5/3 472/5/3 473/5/3
f 477/6/3 476/6/3 475/6/3
f 478/6/3 476/6/3 477/6/3
f 481/5/3 480/5/3 479/5/3
f 482/5/3 480/5/3 481/5/3
f 485/5/3 484/5/3 483/5/3
f 486/5/3 484/5/3 485/5/3
f 487/6/3 486/6/3 485/6/3
f 488/6/3 486/6/3 487/6/3
f 491/6/3 490/6/3 489/6/3
f 492/6/3 490/6/3 491/6/3
f 493/5/3 492/5/3 491/5/3
f 494/5/3 492/5/3 493/5/3
f 497/5/3 496/5/3 495/5/3
f 498/5/3 496/5/3 497/5/3
f 499/6/3 498/6/3 497/6/3
f 500/6/3 498/6/3 499/6/3
f 503/1/3 502/1/3 501/1/3
f 504/1/3 502/1/3 503/1/3
f 507/5/3 506/5/3 505/5/3
f 508/5/3 506/5/3 507/5/3
f 511/6/3 510/6/3 509/6/3
f 512/6/3 510/6/3 511/6/3
f 515/1/3 514/1/3 513/1/3
f 516/1/3 514/1/3 515/1/3
f 519/6/3 518/6/3 517/6/3
f 520/6/3 518/6/3 519/6/3
f 523/1/3 522/1/3 521/1/3
f 524/1/3 522/1/3 523/1/3
f 527/6/3 526/6/3 525/6/3
f 528/6/3 526/6/3 527/6/3
f 531/6/3 530/6/3 529/6/3
f 532/6/3 530/6/3 531/6/3
f 535/1/3 534/1/3 533/1/3
f 536/1/3 534/1/3 535/1/3
f 539/6/3 538/6/3 537/6/3
f 540/6/3 538/6/3 539/6/3
f 543/6/3 542/6/3 541/6/3
f 544/6/3 542/6/3 543/6/3
f 547/6/3 546/6/3 545/6/3
f 548/6/3 546/6/3 547/6/3
f 551/5/3 550/5/3 549/5/3
f 552/5/3 550/5/3 551/5/3
f 555/5/3 554/5/3 553/5/3
f 556/5/3 554/5/3 555/5/3
f 559/3/3 558/3/3 557/3/3
f 560/3/3 558/3/3 559/3/3
f 563/4/3 562/4/3 561/4/3
f 564/4/3 562/4/3 563/4/3
f 567/4/3 566/4/3 565/4/3
f 568/4/3 566/4/3 567/4/3
f 569/3/3 568/3/3 567/3/3
f 570/3/3 568/3/3 569/3/3
f 571/6/3 570/6/3 569/6/3
f 572/6/3 570/6/3 571/6/3
f 575/4/3 574/4/3 573/4/3
f 576/4/3 574/4/3 575/4/3
f 577/3/3 576/3/3 575/3/3
f 578/3/3 576/3/3 577/3/3
f 579/3/4 580/3/4 581/3/4
f 581/3/4 580/3/4 582/3/4
f 581/6/4 582/6/4 583/6/4
f 583/6/4 582/6/4 584/6/4
f 585/2/4 586/2/4 587/2/4
f 587/2/4 586/2/4 588/2/4
f 587/3/4 588/3/4 589/3/4
f 589/3/4 588/3/4 590/3/4
f 589/4/4 590/4/4 591/4/4
f 591/4/4 590/4/4 592/4/4
f 593/6/4 594/6/4 595/6/4
f 595/6/4 594/6/4 596/6/4
f 595/4/4 596/4/4 597/4/4
f 597/4/4 596/4/4 598/4/4
f 599/3/4 600/3/4 601/3/4
f 601/3/4 600/3/4 602/3/4
f 603/5/4 604/5/4 605/5/4
f 605/5/4 604/5/4 606/5/4
f 607/3/4 608/3/4 609/3/4
f 609/3/4 608/3/4 610/3/4
f 611/1/4 612/1/4 613/1/4
f 613/1/4 612/1/4 614/1/4
f 613/6/4 614/6/4 615/6/4
f 615/6/4 614/6/4 616/6/4
f 617/6/4 618/6/4 619/6/4
f 619/6/4 618/6/4 620/6/4
f 621/1/4 622/1/4 623/1/4
f 623/1/4 622/1/4 624/1/4
f 625/1/4 626/1/4 627/1/4
f 627/1/4 626/1/4 628/1/4
f 629/6/4 630/6/4 631/6/4
f 631/6/4 630/6/4 632/6/4
f 633/1/4 634/1/4 635/1/4
f 635/1/4 634/1/4 636/1/4
f 637/1/4 638/1/4 639/1/4
f 639/1/4 638/1/4 640/1/4
f 641/5/4 642/5/4 643/5/4
f 643/5/4 642/5/4 644/5/4
f 645/6/4 646/6/4 647/6/4
f 647/6/4 646/6/4 648/6/4
f 649/6/4 650/6/4 651/6/4
f 651/6/4 650/6/4 652/6/4
f 651/5/4 652/5/4 653/5/4
f 653/5/4 652/5/4 654/5/4
f 655/5/4 656/5/4 657/5/4
f 657/5/4 656/5/4 658/5/4
f 657/6/4 658/6/4 659/6/4
f 659/6/4 658/6/4 660/6/4
f 661/1/4 662/1/4 663/1/4
f 663/1/4 662/1/4 664/1/4
f 665/6/4 666/6/4 667/6/4
f 667/6/4 666/6/4 668/6/4
f 667/5/4 668/5/4 669/5/4
f 669/5/4 668/5/4 670/5/4
f 671/6/4 672/6/4 673/6/4
f 673/6/4 672/6/4 674/6/4
f 675/5/4 676/5/4 677/5/4
f 677/5/4 676/5/4 678/5/4
f 677/6/4 678/6/4 679/6/4
f 679/6/4 678/6/4 680/6/4
f 681/5/4 682/5/4 683/5/4
f 683/5/4 682/5/4 684/5/4
f 685/5/4 686/5/4 687/5/4
f 687/5/4 686/5/4 688/5/4
f 687/6/4 688/6/4 689/6/4
f 689/6/4 688/6/4 690/6/4
f 691/6/4 692/6/4 693/6/4
f 693/6/4 692/6/4 694/6/4
f 693/5/4 694/5/4 695/5/4
f 695/5/4 694/5/4 696/5/4
f 697/5/4 698/5/4 699/5/4
f 699/5/4 698/5/4 700/5/4
f 701/1/4 702/1/4 703/1/4
f 703/1/4 702/1/4 704/1/4
f 705/5/4 706/5/4 707/5/4
f 707/5/4 706/5/4 708/5/4
f 709/5/4 710/5/4 711/5/4
f 711/5/4 710/5/4 712/5/4
f 713/6/4 714/6/4 715/6/4
f 715/6/4 714/6/4 716/6/4
f 717/5/4 718/5/4 719/5/4
f 719/5/4 718/5/4 720/5/4
f 721/1/4 722/1/4 723/1/4
f 723/1/4 722/1/4 724/1/4
f 725/1/4 726/1/4 727/1/4
f 727/1/4 726/1/4 728/1/4
f 729/5/4 730/5/4 731/5/4
f 731/5/4 730/5/4 732/5/4
f 733/1/4 734/1/4 735/1/4
f 735/1/4 734/1/4 736/1/4
f 737/1/4 738/1/4 739/1/4
f 739/1/4 738/1/4 740/1/4
f 741/5/4 742/5/4 743/5/4
f 743/5/4 742/5/4 744/5/4
f 745/5/4 746/5/4 747/5/4
f 747/5/4 746/5/4 748/5/4
f 749/1/4 750/1/4 751/1/4
f 751/1/4 750/1/4 752/1/4
f 753/3/4 754/3/4 755/3/4
f 755/3/4 754/3/4 756/3/4
f 755/6/4 756/6/4 757/6/4
f 757/6/4 756/6/4 758/6/4
f 757/4/4 758/4/4 759/4/4
f 759/4/4 758/4/4 760/4/4
f 759/6/4 760/6/4 761/6/4
f 761/6/4 760/6/4 762/6/4
f 761/4/4 762/4/4 763/4/4
f 763/4/4 762/4/4 764/4/4
f 763/3/4 764/3/4 765/3/4
f 765/3/4 764/3/4 766/3/4
f 765/6/4 766/6/4 767/6/4
f 767/6/4 766/6/4 768/6/4
f 767/3/4 768/3/4 769/3/4
f 769/3/4 768/3/4 770/3/4
f 769/4/4 770/4/4 771/4/4
f 771/4/4 770/4/4 772/4/4
f 771/3/4 772/3/4 773/3/4
f 773/3/4 772/3/4 774/3/4
f 773/4/4 774/4/4 775/4/4
f 775/4/4 774/4/4 776/4/4
f 775/3/4 776/3/4 777/3/4
f 777/3/4 776/3/4 778/3/4
f 791/3/5 780/3/5 779/3/5
f 792/4/5 781/4/5 780/4/5
f 792/3/5 780/3/5 791/3/5
f 793/3/5 782/3/5 781/3/5
f 793/4/5 781/4/5 792/4/5
f 794/6/5 783/6/5 782/6/5
f 794/3/5 782/3/5 793/3/5
f 795/3/5 784/3/5 783/3/5
f 795/6/5 783/6/5 794/6/5
f 796/2/5 785/2/5 784/2/5
f 796/3/5 784/3/5 795/3/5
f 797/3/5 786/3/5 785/3/5
f 797/2/5 785/2/5 796/2/5
f 798/4/5 787/4/5 786/4/5
f 798/3/5 786/3/5 797/3/5
f 799/4/5 787/4/5 798/4/5
f 800/6/5 788/6/5 787/6/5
f 800/4/5 787/4/5 799/4/5
f 801/4/5 789/4/5 788/4/5
f 801/6/5 788/6/5 800/6/5
f 802/4/5 789/4/5 801/4/5
f 803/3/5 790/3/5 789/3/5
f 803/4/5 789/4/5 802/4/5
f 804/3/5 790/3/5 803/3/5
f 805/4/5 792/4/5 791/4/5
f 806/3/5 793/3/5 792/3/5
f 806/4/5 792/4/5 805/4/5
f 807/3/5 793/3/5 806/3/5
f 809/5/5 796/5/5 795/5/5
f 810/5/5 796/5/5 809/5/5
f 812/5/5 800/5/5 799/5/5
f 813/5/5 800/5/5 812/5/5
f 815/3/5 803/3/5 802/3/5
f 816/4/5 804/4/5 803/4/5
f 816/3/5 803/3/5 815/3/5
f 817/3/5 806/3/5 805/3/5
f 818/3/5 806/3/5 817/3/5
f 820/1/5 809/1/5 808/1/5
f 821/6/5 810/6/5 809/6/5
f 821/1/5 809/1/5 820/1/5
f 822/6/5 810/6/5 821/6/5
f 826/6/5 812/6/5 811/6/5
f 827/6/5 812/6/5 826/6/5
f 829/1/5 815/1/5 814/1/5
f 830/1/5 815/1/5 829/1/5
f 831/4/5 818/4/5 817/4/5
f 832/4/5 818/4/5 831/4/5
f 833/1/5 820/1/5 819/1/5
f 834/1/5 820/1/5 833/1/5
f 835/6/5 823/6/5 822/6/5
f 836/6/5 823/6/5 835/6/5
f 838/1/5 825/1/5 824/1/5
f 839/5/5 826/5/5 825/5/5
f 839/1/5 825/1/5 838/1/5
f 840/5/5 826/5/5 839/5/5
f 841/1/5 829/1/5 828/1/5
f 842/1/5 829/1/5 841/1/5
f 843/3/5 832/3/5 831/3/5
f 844/3/5 832/3/5 843/3/5
f 845/5/5 837/5/5 836/5/5
f 846/1/5 838/1/5 837/1/5
f 846/5/5 837/5/5 845/5/5
f 847/1/5 838/1/5 846/1/5
f 848/6/5 840/6/5 839/6/5
f 849/6/5 840/6/5 848/6/5
f 852/4/5 804/4/5 816/4/5
f 853/4/5 804/4/5 852/4/5
f 854/6/5 844/6/5 843/6/5
f 855/6/5 844/6/5 854/6/5
f 860/6/5 847/6/5 846/6/5
f 861/5/5 848/5/5 847/5/5
f 861/6/5 847/6/5 860/6/5
f 862/5/5 848/5/5 861/5/5
f 864/6/5 851/6/5 850/6/5
f 865/5/5 852/5/5 851/5/5
f 865/6/5 851/6/5 864/6/5
f 866/6/5 853/6/5 852/6/5
f 866/5/5 852/5/5 865/5/5
f 867/6/5 853/6/5 866/6/5
f 868/3/5 855/3/5 854/3/5
f 869/5/5 856/5/5 855/5/5
f 869/3/5 855/3/5 868/3/5
f 870/6/5 857/6/5 856/6/5
f 870/5/5 856/5/5 869/5/5
f 871/6/5 857/6/5 870/6/5
f 873/1/5 859/1/5 858/1/5
f 874/1/5 859/1/5 873/1/5
f 875/5/5 861/5/5 860/5/5
f 876/6/5 863/6/5 862/6/5
f 876/6/5 862/6/5 861/6/5
f 876/5/5 861/5/5 875/5/5
f 877/6/5 863/6/5 876/6/5
f 878/6/5 863/6/5 877/6/5
f 879/5/5 864/5/5 863/5/5
f 879/6/5 863/6/5 878/6/5
f 880/5/5 864/5/5 879/5/5
f 881/6/5 872/6/5 871/6/5
f 882/6/5 872/6/5 881/6/5
f 884/5/5 875/5/5 874/5/5
f 885/6/5 877/6/5 876/6/5
f 885/6/5 876/6/5 875/6/5
f 885/5/5 875/5/5 884/5/5
f 886/6/5 877/6/5 885/6/5
f 887/5/5 878/5/5 877/5/5
f 887/6/5 877/6/5 886/6/5
f 888/5/5 878/5/5 887/5/5
f 893/5/5 883/5/5 882/5/5
f 894/6/5 884/6/5 883/6/5
f 894/5/5 883/5/5 893/5/5
f 895/6/5 884/6/5 894/6/5
f 897/6/5 887/6/5 886/6/5
f 898/6/5 887/6/5 897/6/5
f 899/6/5 889/6/5 888/6/5
f 900/5/5 890/5/5 889/5/5
f 900/6/5 889/6/5 899/6/5
f 901/5/5 890/5/5 900/5/5
f 902/4/5 867/4/5 866/4/5
f 903/4/5 867/4/5 902/4/5
f 904/4/5 869/4/5 868/4/5
f 905/4/5 869/4/5 904/4/5
f 906/5/5 892/5/5 891/5/5
f 907/6/5 893/6/5 892/6/5
f 907/5/5 892/5/5 906/5/5
f 908/6/5 893/6/5 907/6/5
f 910/1/5 896/1/5 895/1/5
f 911/1/5 896/1/5 910/1/5
f 912/5/5 898/5/5 897/5/5
f 913/5/5 898/5/5 912/5/5
f 917/5/5 902/5/5 901/5/5
f 918/6/5 903/6/5 902/6/5
f 918/5/5 902/5/5 917/5/5
f 919/6/5 903/6/5 918/6/5
f 920/6/5 905/6/5 904/6/5
f 920/6/5 906/6/5 905/6/5
f 921/6/5 906/6/5 920/6/5
f 922/6/5 906/6/5 921/6/5
f 923/5/5 908/5/5 907/5/5
f 924/5/5 908/5/5 923/5/5
f 925/1/5 910/1/5 909/1/5
f 926/1/5 910/1/5 925/1/5
f 927/6/5 912/6/5 911/6/5
f 928/6/5 912/6/5 927/6/5
f 930/1/5 915/1/5 914/1/5
f 931/1/5 915/1/5 930/1/5
f 932/6/5 917/6/5 916/6/5
f 933/6/5 917/6/5 932/6/5
f 934/2/5 919/2/5 918/2/5
f 935/2/5 919/2/5 934/2/5
f 936/6/5 923/6/5 922/6/5
f 937/6/5 923/6/5 936/6/5
f 939/5/5 928/5/5 927/5/5
f 940/5/5 928/5/5 939/5/5
f 941/1/5 930/1/5 929/1/5
f 942/1/5 930/1/5 941/1/5
f 943/6/5 932/6/5 931/6/5
f 944/1/5 933/1/5 932/1/5
f 944/6/5 932/6/5 943/6/5
f 945/1/5 933/1/5 944/1/5
f 946/3/5 935/3/5 934/3/5
f 947/3/5 935/3/5 946/3/5
f 948/6/5 939/6/5 938/6/5
f 949/6/5 939/6/5 948/6/5
f 951/5/5 944/5/5 943/5/5
f 952/5/5 944/5/5 951/5/5
f 953/4/5 947/4/5 946/4/5
f 954/4/5 947/4/5 953/4/5
f 955/4/5 921/4/5 920/4/5
f 956/5/5 937/5/5 936/5/5
f 957/5/5 937/5/5 956/5/5
f 959/5/5 949/5/5 948/5/5
f 960/5/5 949/5/5 959/5/5
f 961/6/5 951/6/5 950/6/5
f 962/1/5 952/1/5 951/1/5
f 962/6/5 951/6/5 961/6/5
f 963/1/5 952/1/5 962/1/5
f 965/3/5 954/3/5 953/3/5
f 966/3/5 954/3/5 965/3/5
f 967/4/5 955/4/5 920/4/5
f 968/5/5 956/5/5 955/5/5
f 968/4/5 955/4/5 967/4/5
f 969/5/5 956/5/5 968/5/5
f 970/5/5 959/5/5 958/5/5
f 971/5/5 959/5/5 970/5/5
f 974/5/5 962/5/5 961/5/5
f 975/5/5 962/5/5 974/5/5
f 977/3/5 965/3/5 964/3/5
f 978/4/5 966/4/5 965/4/5
f 978/3/5 965/3/5 977/3/5
f 979/4/5 966/4/5 978/4/5
f 980/3/5 968/3/5 967/3/5
f 981/6/5 969/6/5 968/6/5
f 981/3/5 968/3/5 980/3/5
f 982/4/5 970/4/5 969/4/5
f 982/6/5 969/6/5 981/6/5
f 983/6/5 971/6/5 970/6/5
f 983/4/5 970/4/5 982/4/5
f 984/4/5 972/4/5 971/4/5
f 984/6/5 971/6/5 983/6/5
f 985/3/5 973/3/5 972/3/5
f 985/4/5 972/4/5 984/4/5
f 986/6/5 974/6/5 973/6/5
f 986/3/5 973/3/5 985/3/5
f 987/3/5 975/3/5 974/3/5
f 987/6/5 974/6/5 986/6/5
f 988/4/5 976/4/5 975/4/5
f 988/3/5 975/3/5 987/3/5
f 989/3/5 977/3/5 976/3/5
f 989/4/5 976/4/5 988/4/5
f 990/4/5 978/4/5 977/4/5
f 990/3/5 977/3/5 989/3/5
f 991/3/5 979/3/5 978/3/5
f 991/4/5 978/4/5 990/4/5
f 992/3/5 979/3/5 991/3/5
f 993/3/6 994/3/6 1005/3/6
f 994/4/6 995/4/6 1006/4/6
f 1005/3/6 994/3/6 1006/3/6
f 995/3/6 996/3/6 1007/3/6
f 1006/4/6 995/4/6 1007/4/6
f 996/6/6 997/6/6 1008/6/6
f 1007/3/6 996/3/6 1008/3/6
f 997/3/6 998/3/6 1009/3/6
f 1008/6/6 997/6/6 1009/6/6
f 998/2/6 999/2/6 1010/2/6
f 1009/3/6 998/3/6 1010/3/6
f 999/3/6 1000/3/6 1011/3/6
f 1010/2/6 999/2/6 1011/2/6
f 1000/4/6 1001/4/6 1012/4/6
f 1011/3/6 1000/3/6 1012/3/6
f 1012/4/6 1001/4/6 1013/4/6
f 1001/6/6 1002/6/6 1014/6/6
f 1013/4/6 1001/4/6 1014/4/6
f 1002/4/6 1003/4/6 1015/4/6
f 1014/6/6 1002/6/6 1015/6/6
f 1015/4/6 1003/4/6 1016/4/6
f 1003/3/6 1004/3/6 1017/3/6
f 1016/4/6 1003/4/6 1017/4/6
f 1017/3/6 1004/3/6 1018/3/6
f 1005/4/6 1006/4/6 1019/4/6
f 1006/3/6 1007/3/6 1020/3/6
f 1019/4/6 1006/4/6 1020/4/6
f 1020/3/6 1007/3/6 1021/3/6
f 1009/5/6 1010/5/6 1023/5/6
f 1023/5/6 1010/5/6 1024/5/6
f 1013/5/6 1014/5/6 1026/5/6
f 1026/5/6 1014/5/6 1027/5/6
f 1016/3/6 1017/3/6 1029/3/6
f 1017/4/6 1018/4/6 1030/4/6
f 1029/3/6 1017/3/6 1030/3/6
f 1019/3/6 1020/3/6 1031/3/6
f 1031/3/6 1020/3/6 1032/3/6
f 1022/1/6 1023/1/6 1034/1/6
f 1023/6/6 1024/6/6 1035/6/6
f 1034/1/6 1023/1/6 1035/1/6
f 1035/6/6 1024/6/6 1036/6/6
f 1025/6/6 1026/6/6 1040/6/6
f 1040/6/6 1026/6/6 1041/6/6
f 1028/1/6 1029/1/6 1043/1/6
f 1043/1/6 1029/1/6 1044/1/6
f 1031/4/6 1032/4/6 1045/4/6
f 1045/4/6 1032/4/6 1046/4/6
f 1033/1/6 1034/1/6 1047/1/6
f 1047/1/6 1034/1/6 1048/1/6
f 1036/6/6 1037/6/6 1049/6/6
f 1049/6/6 1037/6/6 1050/6/6
f 1038/1/6 1039/1/6 1052/1/6
f 1039/5/6 1040/5/6 1053/5/6
f 1052/1/6 1039/1/6 1053/1/6
f 1053/5/6 1040/5/6 1054/5/6
f 1042/1/6 1043/1/6 1055/1/6
f 1055/1/6 1043/1/6 1056/1/6
f 1045/3/6 1046/3/6 1057/3/6
f 1057/3/6 1046/3/6 1058/3/6
f 1050/5/6 1051/5/6 1059/5/6
f 1051/1/6 1052/1/6 1060/1/6
f 1059/5/6 1051/5/6 1060/5/6
f 1060/1/6 1052/1/6 1061/1/6
f 1053/6/6 1054/6/6 1062/6/6
f 1062/6/6 1054/6/6 1063/6/6
f 1030/4/6 1018/4/6 1066/4/6
f 1066/4/6 1018/4/6 1067/4/6
f 1057/6/6 1058/6/6 1068/6/6
f 1068/6/6 1058/6/6 1069/6/6
f 1060/6/6 1061/6/6 1074/6/6
f 1061/5/6 1062/5/6 1075/5/6
f 1074/6/6 1061/6/6 1075/6/6
f 1075/5/6 1062/5/6 1076/5/6
f 1064/6/6 1065/6/6 1078/6/6
f 1065/5/6 1066/5/6 1079/5/6
f 1078/6/6 1065/6/6 1079/6/6
f 1066/6/6 1067/6/6 1080/6/6
f 1079/5/6 1066/5/6 1080/5/6
f 1080/6/6 1067/6/6 1081/6/6
f 1068/3/6 1069/3/6 1082/3/6
f 1069/5/6 1070/5/6 1083/5/6
f 1082/3/6 1069/3/6 1083/3/6
f 1070/6/6 1071/6/6 1084/6/6
f 1083/5/6 1070/5/6 1084/5/6
f 1084/6/6 1071/6/6 1085/6/6
f 1072/1/6 1073/1/6 1087/1/6
f 1087/1/6 1073/1/6 1088/1/6
f 1074/5/6 1075/5/6 1089/5/6
f 1076/6/6 1077/6/6 1090/6/6
f 1075/6/6 1076/6/6 1090/6/6
f 1089/5/6 1075/5/6 1090/5/6
f 1090/6/6 1077/6/6 1091/6/6
f 1091/6/6 1077/6/6 1092/6/6
f 1077/5/6 1078/5/6 1093/5/6
f 1092/6/6 1077/6/6 1093/6/6
f 1093/5/6 1078/5/6 1094/5/6
f 1085/6/6 1086/6/6 1095/6/6
f 1095/6/6 1086/6/6 1096/6/6
f 1088/5/6 1089/5/6 1098/5/6
f 1090/6/6 1091/6/6 1099/6/6
f 1089/6/6 1090/6/6 1099/6/6
f 1098/5/6 1089/5/6 1099/5/6
f 1099/6/6 1091/6/6 1100/6/6
f 1091/5/6 1092/5/6 1101/5/6
f 1100/6/6 1091/6/6 1101/6/6
f 1101/5/6 1092/5/6 1102/5/6
f 1096/5/6 1097/5/6 1107/5/6
f 1097/6/6 1098/6/6 1108/6/6
f 1107/5/6 1097/5/6 1108/5/6
f 1108/6/6 1098/6/6 1109/6/6
f 1100/6/6 1101/6/6 1111/6/6
f 1111/6/6 1101/6/6 1112/6/6
f 1102/6/6 1103/6/6 1113/6/6
f 1103/5/6 1104/5/6 1114/5/6
f 1113/6/6 1103/6/6 1114/6/6
f 1114/5/6 1104/5/6 1115/5/6
f 1080/4/6 1081/4/6 1116/4/6
f 1116/4/6 1081/4/6 1117/4/6
f 1082/4/6 1083/4/6 1118/4/6
f 1118/4/6 1083/4/6 1119/4/6
f 1105/5/6 1106/5/6 1120/5/6
f 1106/6/6 1107/6/6 1121/6/6
f 1120/5/6 1106/5/6 1121/5/6
f 1121/6/6 1107/6/6 1122/6/6
f 1109/1/6 1110/1/6 1124/1/6
f 1124/1/6 1110/1/6 1125/1/6
f 1111/5/6 1112/5/6 1126/5/6
f 1126/5/6 1112/5/6 1127/5/6
f 1115/5/6 1116/5/6 1131/5/6
f 1116/6/6 1117/6/6 1132/6/6
f 1131/5/6 1116/5/6 1132/5/6
f 1132/6/6 1117/6/6 1133/6/6
f 1118/6/6 1119/6/6 1134/6/6
f 1119/6/6 1120/6/6 1134/6/6
f 1134/6/6 1120/6/6 1135/6/6
f 1135/6/6 1120/6/6 1136/6/6
f 1121/5/6 1122/5/6 1137/5/6
f 1137/5/6 1122/5/6 1138/5/6
f 1123/1/6 1124/1/6 1139/1/6
f 1139/1/6 1124/1/6 1140/1/6
f 1125/6/6 1126/6/6 1141/6/6
f 1141/6/6 1126/6/6 1142/6/6
f 1128/1/6 1129/1/6 1144/1/6
f 1144/1/6 1129/1/6 1145/1/6
f 1130/6/6 1131/6/6 1146/6/6
f 1146/6/6 1131/6/6 1147/6/6
f 1132/2/6 1133/2/6 1148/2/6
f 1148/2/6 1133/2/6 1149/2/6
f 1136/6/6 1137/6/6 1150/6/6
f 1150/6/6 1137/6/6 1151/6/6
f 1141/5/6 1142/5/6 1153/5/6
f 1153/5/6 1142/5/6 1154/5/6
f 1143/1/6 1144/1/6 1155/1/6
f 1155/1/6 1144/1/6 1156/1/6
f 1145/6/6 1146/6/6 1157/6/6
f 1146/1/6 1147/1/6 1158/1/6
f 1157/6/6 1146/6/6 1158/6/6
f 1158/1/6 1147/1/6 1159/1/6
f 1148/3/6 1149/3/6 1160/3/6
f 1160/3/6 1149/3/6 1161/3/6
f 1152/6/6 1153/6/6 1162/6/6
f 1162/6/6 1153/6/6 1163/6/6
f 1157/5/6 1158/5/6 1165/5/6
f 1165/5/6 1158/5/6 1166/5/6
f 1160/4/6 1161/4/6 1167/4/6
f 1167/4/6 1161/4/6 1168/4/6
f 1134/4/6 1135/4/6 1169/4/6
f 1150/5/6 1151/5/6 1170/5/6
f 1170/5/6 1151/5/6 1171/5/6
f 1162/5/6 1163/5/6 1173/5/6
f 1173/5/6 1163/5/6 1174/5/6
f 1164/6/6 1165/6/6 1175/6/6
f 1165/1/6 1166/1/6 1176/1/6
f 1175/6/6 1165/6/6 1176/6/6
f 1176/1/6 1166/1/6 1177/1/6
f 1167/3/6 1168/3/6 1179/3/6
f 1179/3/6 1168/3/6 1180/3/6
f 1134/4/6 1169/4/6 1181/4/6
f 1169/5/6 1170/5/6 1182/5/6
f 1181/4/6 1169/4/6 1182/4/6
f 1182/5/6 1170/5/6 1183/5/6
f 1172/5/6 1173/5/6 1184/5/6
f 1184/5/6 1173/5/6 1185/5/6
f 1175/5/6 1176/5/6 1188/5/6
f 1188/5/6 1176/5/6 1189/5/6
f 1178/3/6 1179/3/6 1191/3/6
f 1179/4/6 1180/4/6 1192/4/6
f 1191/3/6 1179/3/6 1192/3/6
f 1192/4/6 1180/4/6 1193/4/6
f 1181/3/6 1182/3/6 1194/3/6
f 1182/6/6 1183/6/6 1195/6/6
f 1194/3/6 1182/3/6 1195/3/6
f 1183/4/6 1184/4/6 1196/4/6
f 1195/6/6 1183/6/6 1196/6/6
f 1184/6/6 1185/6/6 1197/6/6
f 1196/4/6 1184/4/6 1197/4/6
f 1185/4/6 1186/4/6 1198/4/6
f 1197/6/6 1185/6/6 1198/6/6
f 1186/3/6 1187/3/6 1199/3/6
f 1198/4/6 1186/4/6 1199/4/6
f 1187/6/6 1188/6/6 1200/6/6
f 1199/3/6 1187/3/6 1200/3/6
f 1188/3/6 1189/3/6 1201/3/6
f 1200/6/6 1188/6/6 1201/6/6
f 1189/4/6 1190/4/6 1202/4/6
f 1201/3/6 1189/3/6 1202/3/6
f 1190/3/6 1191/3/6 1203/3/6
f 1202/4/6 1190/4/6 1203/4/6
f 1191/4/6 1192/4/6 1204/4/6
f 1203/3/6 1191/3/6 1204/3/6
f 1192/3/6 1193/3/6 1205/3/6
f 1204/4/6 1192/4/6 1205/4/6
f 1205/3/6 1193/3/6 1206/3/6
