# MagicaVoxel @ Ephtracy

# group
o Glass1

# material
mtllib Glass.mtl
usemtl palette

# normals
vn -1 0 0
vn 1 0 0
vn 0 0 1
vn 0 0 -1
vn 0 -1 0
vn 0 1 0

# texcoords
vt 0.00195312 0.5
vt 0.00585938 0.5
vt 0.00976562 0.5
vt 0.0136719 0.5

# verts
v -0.8 0 0.8
v -0.8 0 0.7
v -0.8 0 0.6
v -0.8 0 0.5
v -0.8 0 0.4
v -0.8 0 0.3
v -0.8 0 0.2
v -0.8 0 0.1
v -0.8 0 -0.7
v -0.8 0 -0.8
v -0.8 0.1 0.8
v -0.8 0.1 0.7
v -0.8 0.1 0.6
v -0.8 0.1 0.5
v -0.8 0.1 0.4
v -0.8 0.1 0.3
v -0.8 0.1 0.2
v -0.8 0.1 0.1
v -0.8 0.1 -0.7
v -0.8 0.1 -0.8
v -0.6 0 0.5
v -0.6 0 0.4
v -0.6 0.1 0.5
v -0.6 0.1 0.4
v -0.5 0 0.6
v -0.5 0 0.5
v -0.5 0.1 0.6
v -0.5 0.1 0.5
v 0.2 0 -0.3
v 0.2 0 -0.4
v 0.2 0.1 -0.3
v 0.2 0.1 -0.4
v 0.3 0 -0.2
v 0.3 0 -0.3
v 0.3 0 -0.5
v 0.3 0 -0.6
v 0.3 0.1 -0.2
v 0.3 0.1 -0.3
v 0.3 0.1 -0.5
v 0.3 0.1 -0.6
v 0.4 0 -0.4
v 0.4 0 -0.5
v 0.4 0.1 -0.4
v 0.4 0.1 -0.5
v 0.5 0 -0.3
v 0.5 0 -0.4
v 0.5 0.1 -0.3
v 0.5 0.1 -0.4
v 0.6 0 0.7
v 0.6 0 0.6
v 0.6 0 -0.6
v 0.6 0 -0.7
v 0.6 0.1 0.7
v 0.6 0.1 0.6
v 0.6 0.1 -0.6
v 0.6 0.1 -0.7
v 0.7 0 0.6
v 0.7 0 -0.1
v 0.7 0 -0.2
v 0.7 0 -0.3
v 0.7 0 -0.4
v 0.7 0 -0.5
v 0.7 0 -0.6
v 0.7 0.1 0.6
v 0.7 0.1 -0.1
v 0.7 0.1 -0.2
v 0.7 0.1 -0.3
v 0.7 0.1 -0.4
v 0.7 0.1 -0.5
v 0.7 0.1 -0.6
v -0.7 0 0.6
v -0.7 0 0.5
v -0.7 0 0.4
v -0.7 0 0.3
v -0.7 0 0.2
v -0.7 0 0.1
v -0.7 0 -0.6
v -0.7 0.1 0.6
v -0.7 0.1 0.5
v -0.7 0.1 0.4
v -0.7 0.1 0.3
v -0.7 0.1 0.2
v -0.7 0.1 0.1
v -0.7 0.1 -0.6
v -0.6 0 0.7
v -0.6 0 0.6
v -0.6 0 -0.6
v -0.6 0 -0.7
v -0.6 0.1 0.7
v -0.6 0.1 0.6
v -0.6 0.1 -0.6
v -0.6 0.1 -0.7
v -0.5 0 0.5
v -0.5 0 0.4
v -0.5 0.1 0.5
v -0.5 0.1 0.4
v -0.4 0 0.6
v -0.4 0 0.5
v -0.4 0.1 0.6
v -0.4 0.1 0.5
v 0.3 0 -0.3
v 0.3 0 -0.4
v 0.3 0.1 -0.3
v 0.3 0.1 -0.4
v 0.4 0 -0.2
v 0.4 0 -0.3
v 0.4 0 -0.5
v 0.4 0 -0.6
v 0.4 0.1 -0.2
v 0.4 0.1 -0.3
v 0.4 0.1 -0.5
v 0.4 0.1 -0.6
v 0.5 0 -0.4
v 0.5 0 -0.5
v 0.5 0.1 -0.4
v 0.5 0.1 -0.5
v 0.6 0 -0.3
v 0.6 0 -0.4
v 0.6 0.1 -0.3
v 0.6 0.1 -0.4
v 0.8 0 0.8
v 0.8 0 0.7
v 0.8 0 -0.1
v 0.8 0 -0.2
v 0.8 0 -0.3
v 0.8 0 -0.4
v 0.8 0 -0.5
v 0.8 0 -0.6
v 0.8 0 -0.7
v 0.8 0 -0.8
v 0.8 0.1 0.8
v 0.8 0.1 0.7
v 0.8 0.1 -0.1
v 0.8 0.1 -0.2
v 0.8 0.1 -0.3
v 0.8 0.1 -0.4
v 0.8 0.1 -0.5
v 0.8 0.1 -0.6
v 0.8 0.1 -0.7
v 0.8 0.1 -0.8
v -0.8 0 0.8
v -0.8 0.1 0.8
v -0.7 0 0.8
v -0.7 0.1 0.8
v -0.6 0 0.8
v -0.6 0.1 0.8
v -0.5 0 0.8
v -0.5 0.1 0.8
v -0.4 0 0.8
v -0.4 0.1 0.8
v -0.3 0 0.8
v -0.3 0.1 0.8
v -0.2 0 0.8
v -0.2 0.1 0.8
v -0.1 0 0.8
v -0.1 0.1 0.8
v 0.7 0 0.8
v 0.7 0.1 0.8
v 0.8 0 0.8
v 0.8 0.1 0.8
v -0.5 0 0.6
v -0.5 0.1 0.6
v -0.4 0 0.6
v -0.4 0.1 0.6
v -0.6 0 0.5
v -0.6 0.1 0.5
v -0.5 0 0.5
v -0.5 0.1 0.5
v 0.3 0 -0.2
v 0.3 0.1 -0.2
v 0.4 0 -0.2
v 0.4 0.1 -0.2
v 0.2 0 -0.3
v 0.2 0.1 -0.3
v 0.3 0 -0.3
v 0.3 0.1 -0.3
v 0.5 0 -0.3
v 0.5 0.1 -0.3
v 0.6 0 -0.3
v 0.6 0.1 -0.3
v 0.4 0 -0.4
v 0.4 0.1 -0.4
v 0.5 0 -0.4
v 0.5 0.1 -0.4
v 0.3 0 -0.5
v 0.3 0.1 -0.5
v 0.4 0 -0.5
v 0.4 0.1 -0.5
v -0.7 0 -0.6
v -0.7 0.1 -0.6
v -0.6 0 -0.6
v -0.6 0.1 -0.6
v 0.6 0 -0.6
v 0.6 0.1 -0.6
v 0.7 0 -0.6
v 0.7 0.1 -0.6
v -0.6 0 -0.7
v -0.6 0.1 -0.7
v 0.1 0 -0.7
v 0.1 0.1 -0.7
v 0.2 0 -0.7
v 0.2 0.1 -0.7
v 0.3 0 -0.7
v 0.3 0.1 -0.7
v 0.4 0 -0.7
v 0.4 0.1 -0.7
v 0.5 0 -0.7
v 0.5 0.1 -0.7
v 0.6 0 -0.7
v 0.6 0.1 -0.7
v -0.6 0 0.7
v -0.6 0.1 0.7
v -0.5 0 0.7
v -0.5 0.1 0.7
v -0.4 0 0.7
v -0.4 0.1 0.7
v -0.3 0 0.7
v -0.3 0.1 0.7
v -0.2 0 0.7
v -0.2 0.1 0.7
v -0.1 0 0.7
v -0.1 0.1 0.7
v 0.6 0 0.7
v 0.6 0.1 0.7
v -0.7 0 0.6
v -0.7 0.1 0.6
v -0.6 0 0.6
v -0.6 0.1 0.6
v 0.6 0 0.6
v 0.6 0.1 0.6
v 0.7 0 0.6
v 0.7 0.1 0.6
v -0.5 0 0.5
v -0.5 0.1 0.5
v -0.4 0 0.5
v -0.4 0.1 0.5
v -0.6 0 0.4
v -0.6 0.1 0.4
v -0.5 0 0.4
v -0.5 0.1 0.4
v 0.3 0 -0.3
v 0.3 0.1 -0.3
v 0.4 0 -0.3
v 0.4 0.1 -0.3
v 0.2 0 -0.4
v 0.2 0.1 -0.4
v 0.3 0 -0.4
v 0.3 0.1 -0.4
v 0.5 0 -0.4
v 0.5 0.1 -0.4
v 0.6 0 -0.4
v 0.6 0.1 -0.4
v 0.4 0 -0.5
v 0.4 0.1 -0.5
v 0.5 0 -0.5
v 0.5 0.1 -0.5
v 0.3 0 -0.6
v 0.3 0.1 -0.6
v 0.4 0 -0.6
v 0.4 0.1 -0.6
v -0.8 0 -0.8
v -0.8 0.1 -0.8
v -0.7 0 -0.8
v -0.7 0.1 -0.8
v 0.1 0 -0.8
v 0.1 0.1 -0.8
v 0.2 0 -0.8
v 0.2 0.1 -0.8
v 0.3 0 -0.8
v 0.3 0.1 -0.8
v 0.4 0 -0.8
v 0.4 0.1 -0.8
v 0.5 0 -0.8
v 0.5 0.1 -0.8
v 0.6 0 -0.8
v 0.6 0.1 -0.8
v 0.7 0 -0.8
v 0.7 0.1 -0.8
v 0.8 0 -0.8
v 0.8 0.1 -0.8
v -0.8 0 0.8
v -0.7 0 0.8
v -0.6 0 0.8
v -0.5 0 0.8
v -0.4 0 0.8
v -0.3 0 0.8
v -0.2 0 0.8
v -0.1 0 0.8
v 0.7 0 0.8
v 0.8 0 0.8
v -0.8 0 0.7
v -0.7 0 0.7
v -0.6 0 0.7
v -0.5 0 0.7
v -0.4 0 0.7
v -0.3 0 0.7
v -0.2 0 0.7
v -0.1 0 0.7
v 0.6 0 0.7
v 0.7 0 0.7
v 0.8 0 0.7
v -0.8 0 0.6
v -0.7 0 0.6
v -0.6 0 0.6
v -0.5 0 0.6
v -0.4 0 0.6
v 0.6 0 0.6
v 0.7 0 0.6
v -0.8 0 0.5
v -0.7 0 0.5
v -0.6 0 0.5
v -0.5 0 0.5
v -0.4 0 0.5
v -0.8 0 0.4
v -0.7 0 0.4
v -0.6 0 0.4
v -0.5 0 0.4
v -0.8 0 0.3
v -0.7 0 0.3
v -0.8 0 0.2
v -0.7 0 0.2
v -0.8 0 0.1
v -0.7 0 0.1
v 0.7 0 -0.1
v 0.8 0 -0.1
v 0.3 0 -0.2
v 0.4 0 -0.2
v 0.7 0 -0.2
v 0.8 0 -0.2
v 0.2 0 -0.3
v 0.3 0 -0.3
v 0.4 0 -0.3
v 0.5 0 -0.3
v 0.6 0 -0.3
v 0.7 0 -0.3
v 0.8 0 -0.3
v 0.2 0 -0.4
v 0.3 0 -0.4
v 0.4 0 -0.4
v 0.5 0 -0.4
v 0.6 0 -0.4
v 0.7 0 -0.4
v 0.8 0 -0.4
v 0.3 0 -0.5
v 0.4 0 -0.5
v 0.5 0 -0.5
v 0.7 0 -0.5
v 0.8 0 -0.5
v -0.7 0 -0.6
v -0.6 0 -0.6
v 0.3 0 -0.6
v 0.4 0 -0.6
v 0.6 0 -0.6
v 0.7 0 -0.6
v 0.8 0 -0.6
v -0.8 0 -0.7
v -0.7 0 -0.7
v -0.6 0 -0.7
v 0.1 0 -0.7
v 0.2 0 -0.7
v 0.3 0 -0.7
v 0.4 0 -0.7
v 0.5 0 -0.7
v 0.6 0 -0.7
v 0.7 0 -0.7
v 0.8 0 -0.7
v -0.8 0 -0.8
v -0.7 0 -0.8
v 0.1 0 -0.8
v 0.2 0 -0.8
v 0.3 0 -0.8
v 0.4 0 -0.8
v 0.5 0 -0.8
v 0.6 0 -0.8
v 0.7 0 -0.8
v 0.8 0 -0.8
v -0.8 0.1 0.8
v -0.7 0.1 0.8
v -0.6 0.1 0.8
v -0.5 0.1 0.8
v -0.4 0.1 0.8
v -0.3 0.1 0.8
v -0.2 0.1 0.8
v -0.1 0.1 0.8
v 0.7 0.1 0.8
v 0.8 0.1 0.8
v -0.8 0.1 0.7
v -0.7 0.1 0.7
v -0.6 0.1 0.7
v -0.5 0.1 0.7
v -0.4 0.1 0.7
v -0.3 0.1 0.7
v -0.2 0.1 0.7
v -0.1 0.1 0.7
v 0.6 0.1 0.7
v 0.7 0.1 0.7
v 0.8 0.1 0.7
v -0.8 0.1 0.6
v -0.7 0.1 0.6
v -0.6 0.1 0.6
v -0.5 0.1 0.6
v -0.4 0.1 0.6
v 0.6 0.1 0.6
v 0.7 0.1 0.6
v -0.8 0.1 0.5
v -0.7 0.1 0.5
v -0.6 0.1 0.5
v -0.5 0.1 0.5
v -0.4 0.1 0.5
v -0.8 0.1 0.4
v -0.7 0.1 0.4
v -0.6 0.1 0.4
v -0.5 0.1 0.4
v -0.8 0.1 0.3
v -0.7 0.1 0.3
v -0.8 0.1 0.2
v -0.7 0.1 0.2
v -0.8 0.1 0.1
v -0.7 0.1 0.1
v 0.7 0.1 -0.1
v 0.8 0.1 -0.1
v 0.3 0.1 -0.2
v 0.4 0.1 -0.2
v 0.7 0.1 -0.2
v 0.8 0.1 -0.2
v 0.2 0.1 -0.3
v 0.3 0.1 -0.3
v 0.4 0.1 -0.3
v 0.5 0.1 -0.3
v 0.6 0.1 -0.3
v 0.7 0.1 -0.3
v 0.8 0.1 -0.3
v 0.2 0.1 -0.4
v 0.3 0.1 -0.4
v 0.4 0.1 -0.4
v 0.5 0.1 -0.4
v 0.6 0.1 -0.4
v 0.7 0.1 -0.4
v 0.8 0.1 -0.4
v 0.3 0.1 -0.5
v 0.4 0.1 -0.5
v 0.5 0.1 -0.5
v 0.7 0.1 -0.5
v 0.8 0.1 -0.5
v -0.7 0.1 -0.6
v -0.6 0.1 -0.6
v 0.3 0.1 -0.6
v 0.4 0.1 -0.6
v 0.6 0.1 -0.6
v 0.7 0.1 -0.6
v 0.8 0.1 -0.6
v -0.8 0.1 -0.7
v -0.7 0.1 -0.7
v -0.6 0.1 -0.7
v 0.1 0.1 -0.7
v 0.2 0.1 -0.7
v 0.3 0.1 -0.7
v 0.4 0.1 -0.7
v 0.5 0.1 -0.7
v 0.6 0.1 -0.7
v 0.7 0.1 -0.7
v 0.8 0.1 -0.7
v -0.8 0.1 -0.8
v -0.7 0.1 -0.8
v 0.1 0.1 -0.8
v 0.2 0.1 -0.8
v 0.3 0.1 -0.8
v 0.4 0.1 -0.8
v 0.5 0.1 -0.8
v 0.6 0.1 -0.8
v 0.7 0.1 -0.8
v 0.8 0.1 -0.8

# faces
f 11/3/1 2/3/1 1/3/1
f 12/4/1 3/4/1 2/4/1
f 12/3/1 2/3/1 11/3/1
f 13/3/1 4/3/1 3/3/1
f 13/4/1 3/4/1 12/4/1
f 14/4/1 5/4/1 4/4/1
f 14/3/1 4/3/1 13/3/1
f 15/3/1 6/3/1 5/3/1
f 15/4/1 5/4/1 14/4/1
f 16/2/1 7/2/1 6/2/1
f 16/3/1 6/3/1 15/3/1
f 17/3/1 8/3/1 7/3/1
f 17/2/1 7/2/1 16/2/1
f 18/4/1 9/4/1 8/4/1
f 18/3/1 8/3/1 17/3/1
f 19/3/1 10/3/1 9/3/1
f 19/4/1 9/4/1 18/4/1
f 20/3/1 10/3/1 19/3/1
f 23/1/1 22/1/1 21/1/1
f 24/1/1 22/1/1 23/1/1
f 27/1/1 26/1/1 25/1/1
f 28/1/1 26/1/1 27/1/1
f 31/1/1 30/1/1 29/1/1
f 32/1/1 30/1/1 31/1/1
f 37/1/1 34/1/1 33/1/1
f 38/1/1 34/1/1 37/1/1
f 39/1/1 36/1/1 35/1/1
f 40/1/1 36/1/1 39/1/1
f 43/1/1 42/1/1 41/1/1
f 44/1/1 42/1/1 43/1/1
f 47/1/1 46/1/1 45/1/1
f 48/1/1 46/1/1 47/1/1
f 53/3/1 50/3/1 49/3/1
f 54/3/1 50/3/1 53/3/1
f 55/3/1 52/3/1 51/3/1
f 56/3/1 52/3/1 55/3/1
f 64/4/1 58/4/1 57/4/1
f 65/3/1 59/3/1 58/3/1
f 65/4/1 58/4/1 64/4/1
f 66/2/1 60/2/1 59/2/1
f 66/3/1 59/3/1 65/3/1
f 67/3/1 61/3/1 60/3/1
f 67/2/1 60/2/1 66/2/1
f 68/4/1 62/4/1 61/4/1
f 68/3/1 61/3/1 67/3/1
f 69/3/1 63/3/1 62/3/1
f 69/4/1 62/4/1 68/4/1
f 70/3/1 63/3/1 69/3/1
f 71/3/2 72/3/2 78/3/2
f 72/4/2 73/4/2 79/4/2
f 78/3/2 72/3/2 79/3/2
f 73/3/2 74/3/2 80/3/2
f 79/4/2 73/4/2 80/4/2
f 74/2/2 75/2/2 81/2/2
f 80/3/2 74/3/2 81/3/2
f 75/3/2 76/3/2 82/3/2
f 81/2/2 75/2/2 82/2/2
f 76/4/2 77/4/2 83/4/2
f 82/3/2 76/3/2 83/3/2
f 83/4/2 77/4/2 84/4/2
f 85/3/2 86/3/2 89/3/2
f 89/3/2 86/3/2 90/3/2
f 87/3/2 88/3/2 91/3/2
f 91/3/2 88/3/2 92/3/2
f 93/1/2 94/1/2 95/1/2
f 95/1/2 94/1/2 96/1/2
f 97/1/2 98/1/2 99/1/2
f 99/1/2 98/1/2 100/1/2
f 101/1/2 102/1/2 103/1/2
f 103/1/2 102/1/2 104/1/2
f 105/1/2 106/1/2 109/1/2
f 109/1/2 106/1/2 110/1/2
f 107/1/2 108/1/2 111/1/2
f 111/1/2 108/1/2 112/1/2
f 113/1/2 114/1/2 115/1/2
f 115/1/2 114/1/2 116/1/2
f 117/1/2 118/1/2 119/1/2
f 119/1/2 118/1/2 120/1/2
f 121/3/2 122/3/2 131/3/2
f 122/4/2 123/4/2 132/4/2
f 131/3/2 122/3/2 132/3/2
f 123/3/2 124/3/2 133/3/2
f 132/4/2 123/4/2 133/4/2
f 124/2/2 125/2/2 134/2/2
f 133/3/2 124/3/2 134/3/2
f 125/3/2 126/3/2 135/3/2
f 134/2/2 125/2/2 135/2/2
f 126/4/2 127/4/2 136/4/2
f 135/3/2 126/3/2 136/3/2
f 127/3/2 128/3/2 137/3/2
f 136/4/2 127/4/2 137/4/2
f 128/4/2 129/4/2 138/4/2
f 137/3/2 128/3/2 138/3/2
f 129/3/2 130/3/2 139/3/2
f 138/4/2 129/4/2 139/4/2
f 139/3/2 130/3/2 140/3/2
f 143/3/3 142/3/3 141/3/3
f 144/3/3 142/3/3 143/3/3
f 145/4/3 144/4/3 143/4/3
f 146/4/3 144/4/3 145/4/3
f 147/3/3 146/3/3 145/3/3
f 148/3/3 146/3/3 147/3/3
f 149/4/3 148/4/3 147/4/3
f 150/4/3 148/4/3 149/4/3
f 151/3/3 150/3/3 149/3/3
f 152/3/3 150/3/3 151/3/3
f 153/2/3 152/2/3 151/2/3
f 154/2/3 152/2/3 153/2/3
f 155/3/3 154/3/3 153/3/3
f 156/3/3 154/3/3 155/3/3
f 157/4/3 156/4/3 155/4/3
f 158/4/3 156/4/3 157/4/3
f 159/3/3 158/3/3 157/3/3
f 160/3/3 158/3/3 159/3/3
f 163/1/3 162/1/3 161/1/3
f 164/1/3 162/1/3 163/1/3
f 167/1/3 166/1/3 165/1/3
f 168/1/3 166/1/3 167/1/3
f 171/1/3 170/1/3 169/1/3
f 172/1/3 170/1/3 171/1/3
f 175/1/3 174/1/3 173/1/3
f 176/1/3 174/1/3 175/1/3
f 179/1/3 178/1/3 177/1/3
f 180/1/3 178/1/3 179/1/3
f 183/1/3 182/1/3 181/1/3
f 184/1/3 182/1/3 183/1/3
f 187/1/3 186/1/3 185/1/3
f 188/1/3 186/1/3 187/1/3
f 191/3/3 190/3/3 189/3/3
f 192/3/3 190/3/3 191/3/3
f 195/3/3 194/3/3 193/3/3
f 196/3/3 194/3/3 195/3/3
f 199/4/3 198/4/3 197/4/3
f 200/4/3 198/4/3 199/4/3
f 201/3/3 200/3/3 199/3/3
f 202/3/3 200/3/3 201/3/3
f 203/2/3 202/2/3 201/2/3
f 204/2/3 202/2/3 203/2/3
f 205/3/3 204/3/3 203/3/3
f 206/3/3 204/3/3 205/3/3
f 207/4/3 206/4/3 205/4/3
f 208/4/3 206/4/3 207/4/3
f 209/3/3 208/3/3 207/3/3
f 210/3/3 208/3/3 209/3/3
f 211/3/4 212/3/4 213/3/4
f 213/3/4 212/3/4 214/3/4
f 213/4/4 214/4/4 215/4/4
f 215/4/4 214/4/4 216/4/4
f 215/3/4 216/3/4 217/3/4
f 217/3/4 216/3/4 218/3/4
f 217/2/4 218/2/4 219/2/4
f 219/2/4 218/2/4 220/2/4
f 219/3/4 220/3/4 221/3/4
f 221/3/4 220/3/4 222/3/4
f 221/4/4 222/4/4 223/4/4
f 223/4/4 222/4/4 224/4/4
f 225/3/4 226/3/4 227/3/4
f 227/3/4 226/3/4 228/3/4
f 229/3/4 230/3/4 231/3/4
f 231/3/4 230/3/4 232/3/4
f 233/1/4 234/1/4 235/1/4
f 235/1/4 234/1/4 236/1/4
f 237/1/4 238/1/4 239/1/4
f 239/1/4 238/1/4 240/1/4
f 241/1/4 242/1/4 243/1/4
f 243/1/4 242/1/4 244/1/4
f 245/1/4 246/1/4 247/1/4
f 247/1/4 246/1/4 248/1/4
f 249/1/4 250/1/4 251/1/4
f 251/1/4 250/1/4 252/1/4
f 253/1/4 254/1/4 255/1/4
f 255/1/4 254/1/4 256/1/4
f 257/1/4 258/1/4 259/1/4
f 259/1/4 258/1/4 260/1/4
f 261/3/4 262/3/4 263/3/4
f 263/3/4 262/3/4 264/3/4
f 263/4/4 264/4/4 265/4/4
f 265/4/4 264/4/4 266/4/4
f 265/3/4 266/3/4 267/3/4
f 267/3/4 266/3/4 268/3/4
f 267/2/4 268/2/4 269/2/4
f 269/2/4 268/2/4 270/2/4
f 269/3/4 270/3/4 271/3/4
f 271/3/4 270/3/4 272/3/4
f 271/4/4 272/4/4 273/4/4
f 273/4/4 272/4/4 274/4/4
f 273/3/4 274/3/4 275/3/4
f 275/3/4 274/3/4 276/3/4
f 275/4/4 276/4/4 277/4/4
f 277/4/4 276/4/4 278/4/4
f 277/3/4 278/3/4 279/3/4
f 279/3/4 278/3/4 280/3/4
f 291/3/5 282/3/5 281/3/5
f 292/4/5 283/4/5 282/4/5
f 292/3/5 282/3/5 291/3/5
f 293/3/5 284/3/5 283/3/5
f 293/4/5 283/4/5 292/4/5
f 294/4/5 285/4/5 284/4/5
f 294/3/5 284/3/5 293/3/5
f 295/3/5 286/3/5 285/3/5
f 295/4/5 285/4/5 294/4/5
f 296/2/5 287/2/5 286/2/5
f 296/3/5 286/3/5 295/3/5
f 297/3/5 288/3/5 287/3/5
f 297/2/5 287/2/5 296/2/5
f 298/4/5 289/4/5 288/4/5
f 298/3/5 288/3/5 297/3/5
f 299/4/5 289/4/5 298/4/5
f 300/3/5 290/3/5 289/3/5
f 300/4/5 289/4/5 299/4/5
f 301/3/5 290/3/5 300/3/5
f 302/4/5 292/4/5 291/4/5
f 303/3/5 293/3/5 292/3/5
f 303/4/5 292/4/5 302/4/5
f 304/3/5 293/3/5 303/3/5
f 307/3/5 300/3/5 299/3/5
f 308/4/5 301/4/5 300/4/5
f 308/3/5 300/3/5 307/3/5
f 309/3/5 303/3/5 302/3/5
f 310/3/5 303/3/5 309/3/5
f 312/1/5 306/1/5 305/1/5
f 313/1/5 306/1/5 312/1/5
f 314/4/5 310/4/5 309/4/5
f 315/4/5 310/4/5 314/4/5
f 316/1/5 312/1/5 311/1/5
f 317/1/5 312/1/5 316/1/5
f 318/3/5 315/3/5 314/3/5
f 319/3/5 315/3/5 318/3/5
f 320/2/5 319/2/5 318/2/5
f 321/2/5 319/2/5 320/2/5
f 322/3/5 321/3/5 320/3/5
f 323/3/5 321/3/5 322/3/5
f 324/4/5 301/4/5 308/4/5
f 325/4/5 301/4/5 324/4/5
f 328/3/5 325/3/5 324/3/5
f 329/3/5 325/3/5 328/3/5
f 331/1/5 327/1/5 326/1/5
f 332/1/5 327/1/5 331/1/5
f 335/2/5 329/2/5 328/2/5
f 336/2/5 329/2/5 335/2/5
f 337/1/5 331/1/5 330/1/5
f 338/1/5 331/1/5 337/1/5
f 340/1/5 334/1/5 333/1/5
f 341/1/5 334/1/5 340/1/5
f 342/3/5 336/3/5 335/3/5
f 343/3/5 336/3/5 342/3/5
f 345/1/5 340/1/5 339/1/5
f 346/1/5 340/1/5 345/1/5
f 347/4/5 343/4/5 342/4/5
f 348/4/5 343/4/5 347/4/5
f 349/4/5 323/4/5 322/4/5
f 351/1/5 345/1/5 344/1/5
f 352/1/5 345/1/5 351/1/5
f 354/3/5 348/3/5 347/3/5
f 355/3/5 348/3/5 354/3/5
f 356/4/5 349/4/5 322/4/5
f 357/3/5 350/3/5 349/3/5
f 357/4/5 349/4/5 356/4/5
f 358/3/5 350/3/5 357/3/5
f 364/3/5 354/3/5 353/3/5
f 365/4/5 355/4/5 354/4/5
f 365/3/5 354/3/5 364/3/5
f 366/4/5 355/4/5 365/4/5
f 367/3/5 357/3/5 356/3/5
f 368/4/5 358/4/5 357/4/5
f 368/3/5 357/3/5 367/3/5
f 368/4/5 359/4/5 358/4/5
f 369/3/5 360/3/5 359/3/5
f 369/4/5 359/4/5 368/4/5
f 370/2/5 361/2/5 360/2/5
f 370/3/5 360/3/5 369/3/5
f 371/3/5 362/3/5 361/3/5
f 371/2/5 361/2/5 370/2/5
f 372/4/5 363/4/5 362/4/5
f 372/3/5 362/3/5 371/3/5
f 373/3/5 364/3/5 363/3/5
f 373/4/5 363/4/5 372/4/5
f 374/4/5 365/4/5 364/4/5
f 374/3/5 364/3/5 373/3/5
f 375/3/5 366/3/5 365/3/5
f 375/4/5 365/4/5 374/4/5
f 376/3/5 366/3/5 375/3/5
f 377/3/6 378/3/6 387/3/6
f 378/4/6 379/4/6 388/4/6
f 387/3/6 378/3/6 388/3/6
f 379/3/6 380/3/6 389/3/6
f 388/4/6 379/4/6 389/4/6
f 380/4/6 381/4/6 390/4/6
f 389/3/6 380/3/6 390/3/6
f 381/3/6 382/3/6 391/3/6
f 390/4/6 381/4/6 391/4/6
f 382/2/6 383/2/6 392/2/6
f 391/3/6 382/3/6 392/3/6
f 383/3/6 384/3/6 393/3/6
f 392/2/6 383/2/6 393/2/6
f 384/4/6 385/4/6 394/4/6
f 393/3/6 384/3/6 394/3/6
f 394/4/6 385/4/6 395/4/6
f 385/3/6 386/3/6 396/3/6
f 395/4/6 385/4/6 396/4/6
f 396/3/6 386/3/6 397/3/6
f 387/4/6 388/4/6 398/4/6
f 388/3/6 389/3/6 399/3/6
f 398/4/6 388/4/6 399/4/6
f 399/3/6 389/3/6 400/3/6
f 395/3/6 396/3/6 403/3/6
f 396/4/6 397/4/6 404/4/6
f 403/3/6 396/3/6 404/3/6
f 398/3/6 399/3/6 405/3/6
f 405/3/6 399/3/6 406/3/6
f 401/1/6 402/1/6 408/1/6
f 408/1/6 402/1/6 409/1/6
f 405/4/6 406/4/6 410/4/6
f 410/4/6 406/4/6 411/4/6
f 407/1/6 408/1/6 412/1/6
f 412/1/6 408/1/6 413/1/6
f 410/3/6 411/3/6 414/3/6
f 414/3/6 411/3/6 415/3/6
f 414/2/6 415/2/6 416/2/6
f 416/2/6 415/2/6 417/2/6
f 416/3/6 417/3/6 418/3/6
f 418/3/6 417/3/6 419/3/6
f 404/4/6 397/4/6 420/4/6
f 420/4/6 397/4/6 421/4/6
f 420/3/6 421/3/6 424/3/6
f 424/3/6 421/3/6 425/3/6
f 422/1/6 423/1/6 427/1/6
f 427/1/6 423/1/6 428/1/6
f 424/2/6 425/2/6 431/2/6
f 431/2/6 425/2/6 432/2/6
f 426/1/6 427/1/6 433/1/6
f 433/1/6 427/1/6 434/1/6
f 429/1/6 430/1/6 436/1/6
f 436/1/6 430/1/6 437/1/6
f 431/3/6 432/3/6 438/3/6
f 438/3/6 432/3/6 439/3/6
f 435/1/6 436/1/6 441/1/6
f 441/1/6 436/1/6 442/1/6
f 438/4/6 439/4/6 443/4/6
f 443/4/6 439/4/6 444/4/6
f 418/4/6 419/4/6 445/4/6
f 440/1/6 441/1/6 447/1/6
f 447/1/6 441/1/6 448/1/6
f 443/3/6 444/3/6 450/3/6
f 450/3/6 444/3/6 451/3/6
f 418/4/6 445/4/6 452/4/6
f 445/3/6 446/3/6 453/3/6
f 452/4/6 445/4/6 453/4/6
f 453/3/6 446/3/6 454/3/6
f 449/3/6 450/3/6 460/3/6
f 450/4/6 451/4/6 461/4/6
f 460/3/6 450/3/6 461/3/6
f 461/4/6 451/4/6 462/4/6
f 452/3/6 453/3/6 463/3/6
f 453/4/6 454/4/6 464/4/6
f 463/3/6 453/3/6 464/3/6
f 454/4/6 455/4/6 464/4/6
f 455/3/6 456/3/6 465/3/6
f 464/4/6 455/4/6 465/4/6
f 456/2/6 457/2/6 466/2/6
f 465/3/6 456/3/6 466/3/6
f 457/3/6 458/3/6 467/3/6
f 466/2/6 457/2/6 467/2/6
f 458/4/6 459/4/6 468/4/6
f 467/3/6 458/3/6 468/3/6
f 459/3/6 460/3/6 469/3/6
f 468/4/6 459/4/6 469/4/6
f 460/4/6 461/4/6 470/4/6
f 469/3/6 460/3/6 470/3/6
f 461/3/6 462/3/6 471/3/6
f 470/4/6 461/4/6 471/4/6
f 471/3/6 462/3/6 472/3/6
