# MagicaVoxel @ Ephtracy

# group
o Mines

# material
mtllib Mines.mtl
usemtl palette

# normals
vn -1 0 0
vn 1 0 0
vn 0 0 1
vn 0 0 -1
vn 0 -1 0
vn 0 1 0

# texcoords
vt 0.0722656 0.5
vt 0.0917969 0.5
vt 0.181641 0.5
vt 0.185547 0.5
vt 0.189453 0.5
vt 0.193359 0.5

# verts
v -0.7 0 0.2
v -0.7 0 -0.2
v -0.7 0.1 0.2
v -0.7 0.1 -0.2
v -0.6 0 0.4
v -0.6 0 0.2
v -0.6 0 -0.2
v -0.6 0 -0.4
v -0.6 0.1 0.4
v -0.6 0.1 0.2
v -0.6 0.1 -0.2
v -0.6 0.1 -0.4
v -0.6 0.2 0.2
v -0.6 0.2 -0.2
v -0.5 0 0.5
v -0.5 0 0.4
v -0.5 0 -0.4
v -0.5 0 -0.5
v -0.5 0.1 0.5
v -0.5 0.1 0.4
v -0.5 0.1 0.2
v -0.5 0.1 -0.2
v -0.5 0.1 -0.4
v -0.5 0.1 -0.5
v -0.5 0.2 0.4
v -0.5 0.2 0.2
v -0.5 0.2 -0.2
v -0.5 0.2 -0.4
v -0.4 0 0.6
v -0.4 0 0.5
v -0.4 0 -0.5
v -0.4 0 -0.6
v -0.4 0.1 0.6
v -0.4 0.1 0.5
v -0.4 0.1 0.4
v -0.4 0.1 -0.4
v -0.4 0.1 -0.5
v -0.4 0.1 -0.6
v -0.4 0.2 0.5
v -0.4 0.2 0.4
v -0.4 0.2 -0.4
v -0.4 0.2 -0.5
v -0.3 0.2 0.2
v -0.3 0.2 -0.1
v -0.3 0.2 -0.2
v -0.3 0.3 0.2
v -0.3 0.3 -0.2
v -0.2 0 0.7
v -0.2 0 0.6
v -0.2 0 -0.6
v -0.2 0 -0.7
v -0.2 0.1 0.7
v -0.2 0.1 0.6
v -0.2 0.1 0.5
v -0.2 0.1 -0.5
v -0.2 0.1 -0.6
v -0.2 0.1 -0.7
v -0.2 0.2 0.6
v -0.2 0.2 0.5
v -0.2 0.2 0.3
v -0.2 0.2 0.2
v -0.2 0.2 -0.2
v -0.2 0.2 -0.3
v -0.2 0.2 -0.5
v -0.2 0.2 -0.6
v -0.2 0.3 0.3
v -0.2 0.3 0.2
v -0.2 0.3 -0.2
v -0.2 0.3 -0.3
v -0.1 0.3 0.1
v -0.1 0.3 0
v -0.1 0.3 -0.1
v -0.1 0.4 0.1
v -0.1 0.4 0
v -0.1 0.4 -0.1
v 0.1 0.3 0.1
v 0.1 0.3 0
v 0.1 0.3 -0.1
v 0.1 0.4 0.1
v 0.1 0.4 0
v 0.1 0.4 -0.1
v 0.2 0 0.7
v 0.2 0 0.6
v 0.2 0 -0.6
v 0.2 0 -0.7
v 0.2 0.1 0.7
v 0.2 0.1 0.6
v 0.2 0.1 0.5
v 0.2 0.1 -0.5
v 0.2 0.1 -0.6
v 0.2 0.1 -0.7
v 0.2 0.2 0.6
v 0.2 0.2 0.5
v 0.2 0.2 0.3
v 0.2 0.2 0.2
v 0.2 0.2 -0.2
v 0.2 0.2 -0.3
v 0.2 0.2 -0.5
v 0.2 0.2 -0.6
v 0.2 0.3 0.3
v 0.2 0.3 0.2
v 0.2 0.3 -0.2
v 0.2 0.3 -0.3
v 0.3 0.2 0.2
v 0.3 0.2 -0.2
v 0.3 0.3 0.2
v 0.3 0.3 -0.2
v 0.4 0 0.6
v 0.4 0 0.5
v 0.4 0 -0.5
v 0.4 0 -0.6
v 0.4 0.1 0.6
v 0.4 0.1 0.5
v 0.4 0.1 0.4
v 0.4 0.1 -0.4
v 0.4 0.1 -0.5
v 0.4 0.1 -0.6
v 0.4 0.2 0.5
v 0.4 0.2 0.4
v 0.4 0.2 -0.4
v 0.4 0.2 -0.5
v 0.5 0 0.5
v 0.5 0 0.4
v 0.5 0 -0.4
v 0.5 0 -0.5
v 0.5 0.1 0.5
v 0.5 0.1 0.4
v 0.5 0.1 0.2
v 0.5 0.1 -0.2
v 0.5 0.1 -0.4
v 0.5 0.1 -0.5
v 0.5 0.2 0.4
v 0.5 0.2 0.2
v 0.5 0.2 -0.2
v 0.5 0.2 -0.4
v 0.6 0 0.4
v 0.6 0 0.2
v 0.6 0 -0.2
v 0.6 0 -0.4
v 0.6 0.1 0.4
v 0.6 0.1 0.2
v 0.6 0.1 -0.2
v 0.6 0.1 -0.4
v 0.6 0.2 0.2
v 0.6 0.2 -0.2
v 0.7 0 0.2
v 0.7 0 -0.2
v 0.7 0.1 0.2
v 0.7 0.1 -0.2
v -0.2 0 0.7
v -0.2 0.1 0.7
v 0.2 0 0.7
v 0.2 0.1 0.7
v -0.4 0 0.6
v -0.4 0.1 0.6
v -0.2 0 0.6
v -0.2 0.1 0.6
v -0.2 0.2 0.6
v 0.2 0 0.6
v 0.2 0.1 0.6
v 0.2 0.2 0.6
v 0.4 0 0.6
v 0.4 0.1 0.6
v -0.5 0 0.5
v -0.5 0.1 0.5
v -0.4 0 0.5
v -0.4 0.1 0.5
v -0.4 0.2 0.5
v -0.2 0.1 0.5
v -0.2 0.2 0.5
v 0.2 0.1 0.5
v 0.2 0.2 0.5
v 0.4 0 0.5
v 0.4 0.1 0.5
v 0.4 0.2 0.5
v 0.5 0 0.5
v 0.5 0.1 0.5
v -0.6 0 0.4
v -0.6 0.1 0.4
v -0.5 0 0.4
v -0.5 0.1 0.4
v -0.5 0.2 0.4
v -0.4 0.1 0.4
v -0.4 0.2 0.4
v 0.4 0.1 0.4
v 0.4 0.2 0.4
v 0.5 0 0.4
v 0.5 0.1 0.4
v 0.5 0.2 0.4
v 0.6 0 0.4
v 0.6 0.1 0.4
v -0.2 0.2 0.3
v -0.2 0.3 0.3
v 0.1 0.2 0.3
v 0.2 0.2 0.3
v 0.2 0.3 0.3
v -0.7 0 0.2
v -0.7 0.1 0.2
v -0.6 0 0.2
v -0.6 0.1 0.2
v -0.6 0.2 0.2
v -0.5 0.1 0.2
v -0.5 0.2 0.2
v -0.3 0.2 0.2
v -0.3 0.3 0.2
v -0.2 0.2 0.2
v -0.2 0.3 0.2
v 0.2 0.2 0.2
v 0.2 0.3 0.2
v 0.3 0.2 0.2
v 0.3 0.3 0.2
v 0.5 0.1 0.2
v 0.5 0.2 0.2
v 0.6 0 0.2
v 0.6 0.1 0.2
v 0.6 0.2 0.2
v 0.7 0 0.2
v 0.7 0.1 0.2
v -0.1 0.3 0.1
v -0.1 0.4 0.1
v 0 0.3 0.1
v 0 0.4 0.1
v 0.1 0.3 0.1
v 0.1 0.4 0.1
v -0.1 0.3 -0.1
v -0.1 0.4 -0.1
v 0 0.3 -0.1
v 0 0.4 -0.1
v 0.1 0.3 -0.1
v 0.1 0.4 -0.1
v -0.7 0 -0.2
v -0.7 0.1 -0.2
v -0.6 0 -0.2
v -0.6 0.1 -0.2
v -0.6 0.2 -0.2
v -0.5 0.1 -0.2
v -0.5 0.2 -0.2
v -0.3 0.2 -0.2
v -0.3 0.3 -0.2
v -0.2 0.2 -0.2
v -0.2 0.3 -0.2
v 0.2 0.2 -0.2
v 0.2 0.3 -0.2
v 0.3 0.2 -0.2
v 0.3 0.3 -0.2
v 0.5 0.1 -0.2
v 0.5 0.2 -0.2
v 0.6 0 -0.2
v 0.6 0.1 -0.2
v 0.6 0.2 -0.2
v 0.7 0 -0.2
v 0.7 0.1 -0.2
v -0.2 0.2 -0.3
v -0.2 0.3 -0.3
v 0.2 0.2 -0.3
v 0.2 0.3 -0.3
v -0.6 0 -0.4
v -0.6 0.1 -0.4
v -0.5 0 -0.4
v -0.5 0.1 -0.4
v -0.5 0.2 -0.4
v -0.4 0.1 -0.4
v -0.4 0.2 -0.4
v 0.4 0.1 -0.4
v 0.4 0.2 -0.4
v 0.5 0 -0.4
v 0.5 0.1 -0.4
v 0.5 0.2 -0.4
v 0.6 0 -0.4
v 0.6 0.1 -0.4
v -0.5 0 -0.5
v -0.5 0.1 -0.5
v -0.4 0 -0.5
v -0.4 0.1 -0.5
v -0.4 0.2 -0.5
v -0.2 0.1 -0.5
v -0.2 0.2 -0.5
v 0.2 0.1 -0.5
v 0.2 0.2 -0.5
v 0.4 0 -0.5
v 0.4 0.1 -0.5
v 0.4 0.2 -0.5
v 0.5 0 -0.5
v 0.5 0.1 -0.5
v -0.4 0 -0.6
v -0.4 0.1 -0.6
v -0.2 0 -0.6
v -0.2 0.1 -0.6
v -0.2 0.2 -0.6
v 0.2 0 -0.6
v 0.2 0.1 -0.6
v 0.2 0.2 -0.6
v 0.4 0 -0.6
v 0.4 0.1 -0.6
v -0.2 0 -0.7
v -0.2 0.1 -0.7
v 0.2 0 -0.7
v 0.2 0.1 -0.7
v -0.2 0 0.7
v 0.2 0 0.7
v -0.4 0 0.6
v -0.2 0 0.6
v 0.2 0 0.6
v 0.4 0 0.6
v -0.5 0 0.5
v -0.4 0 0.5
v 0.4 0 0.5
v 0.5 0 0.5
v -0.6 0 0.4
v -0.5 0 0.4
v 0.5 0 0.4
v 0.6 0 0.4
v -0.7 0 0.2
v -0.6 0 0.2
v 0.6 0 0.2
v 0.7 0 0.2
v -0.7 0 -0.2
v -0.6 0 -0.2
v 0.6 0 -0.2
v 0.7 0 -0.2
v -0.6 0 -0.4
v -0.5 0 -0.4
v 0.5 0 -0.4
v 0.6 0 -0.4
v -0.5 0 -0.5
v -0.4 0 -0.5
v 0.4 0 -0.5
v 0.5 0 -0.5
v -0.4 0 -0.6
v -0.2 0 -0.6
v 0.2 0 -0.6
v 0.4 0 -0.6
v -0.2 0 -0.7
v 0.2 0 -0.7
v -0.2 0.1 0.7
v 0.2 0.1 0.7
v -0.4 0.1 0.6
v -0.2 0.1 0.6
v 0.2 0.1 0.6
v 0.4 0.1 0.6
v -0.5 0.1 0.5
v -0.4 0.1 0.5
v -0.2 0.1 0.5
v 0.2 0.1 0.5
v 0.4 0.1 0.5
v 0.5 0.1 0.5
v -0.6 0.1 0.4
v -0.5 0.1 0.4
v -0.4 0.1 0.4
v 0.4 0.1 0.4
v 0.5 0.1 0.4
v 0.6 0.1 0.4
v -0.7 0.1 0.2
v -0.6 0.1 0.2
v -0.5 0.1 0.2
v 0.5 0.1 0.2
v 0.6 0.1 0.2
v 0.7 0.1 0.2
v -0.7 0.1 -0.2
v -0.6 0.1 -0.2
v -0.5 0.1 -0.2
v 0.5 0.1 -0.2
v 0.6 0.1 -0.2
v 0.7 0.1 -0.2
v -0.6 0.1 -0.4
v -0.5 0.1 -0.4
v -0.4 0.1 -0.4
v 0.4 0.1 -0.4
v 0.5 0.1 -0.4
v 0.6 0.1 -0.4
v -0.5 0.1 -0.5
v -0.4 0.1 -0.5
v -0.2 0.1 -0.5
v 0.2 0.1 -0.5
v 0.4 0.1 -0.5
v 0.5 0.1 -0.5
v -0.4 0.1 -0.6
v -0.2 0.1 -0.6
v 0.2 0.1 -0.6
v 0.4 0.1 -0.6
v -0.2 0.1 -0.7
v 0.2 0.1 -0.7
v -0.2 0.2 0.6
v 0.2 0.2 0.6
v -0.4 0.2 0.5
v -0.2 0.2 0.5
v -0.1 0.2 0.5
v 0.2 0.2 0.5
v 0.4 0.2 0.5
v -0.5 0.2 0.4
v -0.4 0.2 0.4
v -0.2 0.2 0.4
v -0.1 0.2 0.4
v 0.1 0.2 0.4
v 0.2 0.2 0.4
v 0.3 0.2 0.4
v 0.4 0.2 0.4
v 0.5 0.2 0.4
v -0.2 0.2 0.3
v 0.1 0.2 0.3
v 0.2 0.2 0.3
v 0.3 0.2 0.3
v 0.4 0.2 0.3
v -0.6 0.2 0.2
v -0.5 0.2 0.2
v -0.4 0.2 0.2
v -0.3 0.2 0.2
v -0.2 0.2 0.2
v 0.2 0.2 0.2
v 0.3 0.2 0.2
v 0.4 0.2 0.2
v 0.5 0.2 0.2
v 0.6 0.2 0.2
v -0.5 0.2 0.1
v -0.4 0.2 0.1
v 0.4 0.2 0.1
v 0.5 0.2 0.1
v 0.4 0.2 0
v 0.5 0.2 0
v -0.5 0.2 -0.1
v -0.4 0.2 -0.1
v -0.3 0.2 -0.1
v 0.4 0.2 -0.1
v 0.5 0.2 -0.1
v -0.6 0.2 -0.2
v -0.5 0.2 -0.2
v -0.4 0.2 -0.2
v -0.3 0.2 -0.2
v -0.2 0.2 -0.2
v 0.2 0.2 -0.2
v 0.3 0.2 -0.2
v 0.4 0.2 -0.2
v 0.5 0.2 -0.2
v 0.6 0.2 -0.2
v -0.3 0.2 -0.3
v -0.2 0.2 -0.3
v 0.2 0.2 -0.3
v 0.3 0.2 -0.3
v -0.5 0.2 -0.4
v -0.4 0.2 -0.4
v -0.3 0.2 -0.4
v -0.2 0.2 -0.4
v 0 0.2 -0.4
v 0.2 0.2 -0.4
v 0.4 0.2 -0.4
v 0.5 0.2 -0.4
v -0.4 0.2 -0.5
v -0.2 0.2 -0.5
v 0 0.2 -0.5
v 0.2 0.2 -0.5
v 0.4 0.2 -0.5
v -0.2 0.2 -0.6
v 0.2 0.2 -0.6
v -0.2 0.3 0.3
v 0.2 0.3 0.3
v -0.3 0.3 0.2
v -0.2 0.3 0.2
v 0.1 0.3 0.2
v 0.2 0.3 0.2
v 0.3 0.3 0.2
v -0.1 0.3 0.1
v 0 0.3 0.1
v 0.1 0.3 0.1
v 0.2 0.3 0.1
v -0.1 0.3 0
v 0.1 0.3 0
v 0.2 0.3 0
v -0.2 0.3 -0.1
v -0.1 0.3 -0.1
v 0 0.3 -0.1
v 0.1 0.3 -0.1
v -0.3 0.3 -0.2
v -0.2 0.3 -0.2
v -0.1 0.3 -0.2
v 0 0.3 -0.2
v 0.2 0.3 -0.2
v 0.3 0.3 -0.2
v -0.2 0.3 -0.3
v 0.2 0.3 -0.3
v -0.1 0.4 0.1
v 0 0.4 0.1
v 0.1 0.4 0.1
v -0.1 0.4 0
v 0 0.4 0
v 0.1 0.4 0
v -0.1 0.4 -0.1
v 0 0.4 -0.1
v 0.1 0.4 -0.1

# faces
f 3/6/1 2/6/1 1/6/1
f 4/6/1 2/6/1 3/6/1
f 9/6/1 6/6/1 5/6/1
f 10/6/1 6/6/1 9/6/1
f 11/6/1 8/6/1 7/6/1
f 12/6/1 8/6/1 11/6/1
f 13/6/1 11/6/1 10/6/1
f 14/6/1 11/6/1 13/6/1
f 19/6/1 16/6/1 15/6/1
f 20/6/1 16/6/1 19/6/1
f 23/6/1 18/6/1 17/6/1
f 24/6/1 18/6/1 23/6/1
f 25/6/1 21/6/1 20/6/1
f 26/6/1 21/6/1 25/6/1
f 27/6/1 23/6/1 22/6/1
f 28/6/1 23/6/1 27/6/1
f 33/6/1 30/6/1 29/6/1
f 34/6/1 30/6/1 33/6/1
f 37/6/1 32/6/1 31/6/1
f 38/6/1 32/6/1 37/6/1
f 39/6/1 35/6/1 34/6/1
f 40/6/1 35/6/1 39/6/1
f 41/6/1 37/6/1 36/6/1
f 42/6/1 37/6/1 41/6/1
f 46/6/1 44/6/1 43/6/1
f 46/6/1 45/6/1 44/6/1
f 47/6/1 45/6/1 46/6/1
f 52/6/1 49/6/1 48/6/1
f 53/6/1 49/6/1 52/6/1
f 56/6/1 51/6/1 50/6/1
f 57/6/1 51/6/1 56/6/1
f 58/6/1 54/6/1 53/6/1
f 59/6/1 54/6/1 58/6/1
f 64/6/1 56/6/1 55/6/1
f 65/6/1 56/6/1 64/6/1
f 66/6/1 61/6/1 60/6/1
f 67/6/1 61/6/1 66/6/1
f 68/6/1 63/6/1 62/6/1
f 69/6/1 63/6/1 68/6/1
f 73/1/1 71/1/1 70/1/1
f 74/2/1 72/2/1 71/2/1
f 74/1/1 71/1/1 73/1/1
f 75/2/1 72/2/1 74/2/1
f 76/2/2 77/2/2 79/2/2
f 77/1/2 78/1/2 80/1/2
f 79/2/2 77/2/2 80/2/2
f 80/1/2 78/1/2 81/1/2
f 82/6/2 83/6/2 86/6/2
f 86/6/2 83/6/2 87/6/2
f 84/6/2 85/6/2 90/6/2
f 90/6/2 85/6/2 91/6/2
f 87/6/2 88/6/2 92/6/2
f 92/6/2 88/6/2 93/6/2
f 89/6/2 90/6/2 98/6/2
f 98/6/2 90/6/2 99/6/2
f 94/6/2 95/6/2 100/6/2
f 100/6/2 95/6/2 101/6/2
f 96/6/2 97/6/2 102/6/2
f 102/6/2 97/6/2 103/6/2
f 104/6/2 105/6/2 106/6/2
f 106/6/2 105/6/2 107/6/2
f 108/6/2 109/6/2 112/6/2
f 112/6/2 109/6/2 113/6/2
f 110/6/2 111/6/2 116/6/2
f 116/6/2 111/6/2 117/6/2
f 113/6/2 114/6/2 118/6/2
f 118/6/2 114/6/2 119/6/2
f 115/6/2 116/6/2 120/6/2
f 120/6/2 116/6/2 121/6/2
f 122/6/2 123/6/2 126/6/2
f 126/6/2 123/6/2 127/6/2
f 124/6/2 125/6/2 130/6/2
f 130/6/2 125/6/2 131/6/2
f 127/6/2 128/6/2 132/6/2
f 132/6/2 128/6/2 133/6/2
f 129/6/2 130/6/2 134/6/2
f 134/6/2 130/6/2 135/6/2
f 136/6/2 137/6/2 140/6/2
f 140/6/2 137/6/2 141/6/2
f 138/6/2 139/6/2 142/6/2
f 142/6/2 139/6/2 143/6/2
f 141/6/2 142/6/2 144/6/2
f 144/6/2 142/6/2 145/6/2
f 146/6/2 147/6/2 148/6/2
f 148/6/2 147/6/2 149/6/2
f 152/6/3 151/6/3 150/6/3
f 153/6/3 151/6/3 152/6/3
f 156/6/3 155/6/3 154/6/3
f 157/6/3 155/6/3 156/6/3
f 160/6/3 158/6/3 157/6/3
f 161/6/3 158/6/3 160/6/3
f 162/6/3 160/6/3 159/6/3
f 163/6/3 160/6/3 162/6/3
f 166/6/3 165/6/3 164/6/3
f 167/6/3 165/6/3 166/6/3
f 169/6/3 168/6/3 167/6/3
f 170/6/3 168/6/3 169/6/3
f 174/6/3 172/6/3 171/6/3
f 175/6/3 172/6/3 174/6/3
f 176/6/3 174/6/3 173/6/3
f 177/6/3 174/6/3 176/6/3
f 180/6/3 179/6/3 178/6/3
f 181/6/3 179/6/3 180/6/3
f 183/6/3 182/6/3 181/6/3
f 184/6/3 182/6/3 183/6/3
f 188/6/3 186/6/3 185/6/3
f 189/6/3 186/6/3 188/6/3
f 190/6/3 188/6/3 187/6/3
f 191/6/3 188/6/3 190/6/3
f 194/6/3 193/6/3 192/6/3
f 195/6/3 193/6/3 194/6/3
f 196/6/3 193/6/3 195/6/3
f 199/6/3 198/6/3 197/6/3
f 200/6/3 198/6/3 199/6/3
f 202/6/3 201/6/3 200/6/3
f 203/6/3 201/6/3 202/6/3
f 206/6/3 205/6/3 204/6/3
f 207/6/3 205/6/3 206/6/3
f 210/6/3 209/6/3 208/6/3
f 211/6/3 209/6/3 210/6/3
f 215/6/3 213/6/3 212/6/3
f 216/6/3 213/6/3 215/6/3
f 217/6/3 215/6/3 214/6/3
f 218/6/3 215/6/3 217/6/3
f 221/1/3 220/1/3 219/1/3
f 222/1/3 220/1/3 221/1/3
f 223/2/3 222/2/3 221/2/3
f 224/2/3 222/2/3 223/2/3
f 225/2/4 226/2/4 227/2/4
f 227/2/4 226/2/4 228/2/4
f 227/1/4 228/1/4 229/1/4
f 229/1/4 228/1/4 230/1/4
f 231/6/4 232/6/4 233/6/4
f 233/6/4 232/6/4 234/6/4
f 234/6/4 235/6/4 236/6/4
f 236/6/4 235/6/4 237/6/4
f 238/6/4 239/6/4 240/6/4
f 240/6/4 239/6/4 241/6/4
f 242/6/4 243/6/4 244/6/4
f 244/6/4 243/6/4 245/6/4
f 246/6/4 247/6/4 249/6/4
f 249/6/4 247/6/4 250/6/4
f 248/6/4 249/6/4 251/6/4
f 251/6/4 249/6/4 252/6/4
f 253/6/4 254/6/4 255/6/4
f 255/6/4 254/6/4 256/6/4
f 257/6/4 258/6/4 259/6/4
f 259/6/4 258/6/4 260/6/4
f 260/6/4 261/6/4 262/6/4
f 262/6/4 261/6/4 263/6/4
f 264/6/4 265/6/4 267/6/4
f 267/6/4 265/6/4 268/6/4
f 266/6/4 267/6/4 269/6/4
f 269/6/4 267/6/4 270/6/4
f 271/6/4 272/6/4 273/6/4
f 273/6/4 272/6/4 274/6/4
f 274/6/4 275/6/4 276/6/4
f 276/6/4 275/6/4 277/6/4
f 278/6/4 279/6/4 281/6/4
f 281/6/4 279/6/4 282/6/4
f 280/6/4 281/6/4 283/6/4
f 283/6/4 281/6/4 284/6/4
f 285/6/4 286/6/4 287/6/4
f 287/6/4 286/6/4 288/6/4
f 288/6/4 289/6/4 291/6/4
f 291/6/4 289/6/4 292/6/4
f 290/6/4 291/6/4 293/6/4
f 293/6/4 291/6/4 294/6/4
f 295/6/4 296/6/4 297/6/4
f 297/6/4 296/6/4 298/6/4
f 302/6/5 300/6/5 299/6/5
f 303/6/5 300/6/5 302/6/5
f 306/6/5 302/6/5 301/6/5
f 306/6/5 304/6/5 303/6/5
f 306/6/5 303/6/5 302/6/5
f 307/6/5 304/6/5 306/6/5
f 310/6/5 306/6/5 305/6/5
f 310/6/5 308/6/5 307/6/5
f 310/6/5 307/6/5 306/6/5
f 311/6/5 308/6/5 310/6/5
f 314/6/5 310/6/5 309/6/5
f 314/6/5 312/6/5 311/6/5
f 314/6/5 311/6/5 310/6/5
f 315/6/5 312/6/5 314/6/5
f 317/6/5 314/6/5 313/6/5
f 317/6/5 316/6/5 315/6/5
f 317/6/5 315/6/5 314/6/5
f 318/6/5 316/6/5 317/6/5
f 319/6/5 316/6/5 318/6/5
f 320/6/5 316/6/5 319/6/5
f 321/6/5 319/6/5 318/6/5
f 322/6/5 319/6/5 321/6/5
f 323/6/5 319/6/5 322/6/5
f 324/6/5 319/6/5 323/6/5
f 325/6/5 323/6/5 322/6/5
f 326/6/5 323/6/5 325/6/5
f 327/6/5 323/6/5 326/6/5
f 328/6/5 323/6/5 327/6/5
f 329/6/5 327/6/5 326/6/5
f 330/6/5 327/6/5 329/6/5
f 331/6/5 327/6/5 330/6/5
f 332/6/5 327/6/5 331/6/5
f 333/6/5 331/6/5 330/6/5
f 334/6/5 331/6/5 333/6/5
f 335/6/6 336/6/6 338/6/6
f 338/6/6 336/6/6 339/6/6
f 337/6/6 338/6/6 342/6/6
f 342/6/6 338/6/6 343/6/6
f 339/6/6 340/6/6 344/6/6
f 344/6/6 340/6/6 345/6/6
f 341/6/6 342/6/6 348/6/6
f 348/6/6 342/6/6 349/6/6
f 345/6/6 346/6/6 350/6/6
f 350/6/6 346/6/6 351/6/6
f 347/6/6 348/6/6 354/6/6
f 354/6/6 348/6/6 355/6/6
f 351/6/6 352/6/6 356/6/6
f 356/6/6 352/6/6 357/6/6
f 353/6/6 354/6/6 359/6/6
f 359/6/6 354/6/6 360/6/6
f 357/6/6 358/6/6 363/6/6
f 363/6/6 358/6/6 364/6/6
f 360/6/6 361/6/6 365/6/6
f 365/6/6 361/6/6 366/6/6
f 362/6/6 363/6/6 369/6/6
f 369/6/6 363/6/6 370/6/6
f 366/6/6 367/6/6 371/6/6
f 371/6/6 367/6/6 372/6/6
f 368/6/6 369/6/6 375/6/6
f 375/6/6 369/6/6 376/6/6
f 372/6/6 373/6/6 377/6/6
f 377/6/6 373/6/6 378/6/6
f 374/6/6 375/6/6 379/6/6
f 379/6/6 375/6/6 380/6/6
f 378/6/6 379/6/6 381/6/6
f 381/6/6 379/6/6 382/6/6
f 383/6/6 384/6/6 386/6/6
f 386/6/6 384/6/6 387/6/6
f 387/6/6 384/6/6 388/6/6
f 385/6/6 386/6/6 391/6/6
f 386/5/6 387/5/6 392/5/6
f 391/6/6 386/6/6 392/6/6
f 387/4/6 388/4/6 393/4/6
f 392/5/6 387/5/6 393/5/6
f 393/4/6 388/4/6 394/4/6
f 388/6/6 389/6/6 395/6/6
f 394/4/6 388/4/6 395/4/6
f 395/6/6 389/6/6 396/6/6
f 396/6/6 389/6/6 397/6/6
f 393/5/6 394/5/6 399/5/6
f 391/5/6 392/5/6 399/5/6
f 392/5/6 393/5/6 399/5/6
f 394/4/6 395/4/6 400/4/6
f 399/5/6 394/5/6 400/5/6
f 395/3/6 396/3/6 401/3/6
f 400/4/6 395/4/6 401/4/6
f 396/4/6 397/4/6 402/4/6
f 401/3/6 396/3/6 402/3/6
f 397/6/6 398/6/6 403/6/6
f 402/4/6 397/4/6 403/4/6
f 390/6/6 391/6/6 405/6/6
f 391/5/6 399/5/6 406/5/6
f 405/6/6 391/6/6 406/6/6
f 406/5/6 399/5/6 407/5/6
f 407/5/6 399/5/6 408/5/6
f 401/4/6 402/4/6 409/4/6
f 402/3/6 403/3/6 410/3/6
f 409/4/6 402/4/6 410/4/6
f 403/6/6 398/6/6 411/6/6
f 410/3/6 403/3/6 411/3/6
f 411/6/6 398/6/6 412/6/6
f 404/6/6 405/6/6 414/6/6
f 405/5/6 406/5/6 414/5/6
f 406/5/6 407/5/6 414/5/6
f 414/5/6 407/5/6 415/5/6
f 411/4/6 412/4/6 416/4/6
f 410/4/6 411/4/6 416/4/6
f 412/6/6 413/6/6 417/6/6
f 416/4/6 412/4/6 417/4/6
f 410/4/6 416/4/6 418/4/6
f 416/3/6 417/3/6 418/3/6
f 417/6/6 413/6/6 419/6/6
f 418/3/6 417/3/6 419/3/6
f 414/4/6 415/4/6 420/4/6
f 404/6/6 414/6/6 420/6/6
f 415/5/6 407/5/6 421/5/6
f 420/4/6 415/4/6 421/4/6
f 421/5/6 407/5/6 422/5/6
f 410/4/6 418/4/6 423/4/6
f 418/4/6 419/4/6 423/4/6
f 419/6/6 413/6/6 424/6/6
f 423/4/6 419/4/6 424/4/6
f 404/6/6 420/6/6 425/6/6
f 420/3/6 421/3/6 426/3/6
f 425/6/6 420/6/6 426/6/6
f 421/4/6 422/4/6 427/4/6
f 426/3/6 421/3/6 427/3/6
f 427/4/6 422/4/6 428/4/6
f 410/4/6 423/4/6 431/4/6
f 423/3/6 424/3/6 432/3/6
f 431/4/6 423/4/6 432/4/6
f 424/6/6 413/6/6 433/6/6
f 432/3/6 424/3/6 433/3/6
f 433/6/6 413/6/6 434/6/6
f 428/4/6 429/4/6 435/4/6
f 427/4/6 428/4/6 435/4/6
f 435/4/6 429/4/6 436/4/6
f 430/4/6 431/4/6 437/4/6
f 431/3/6 432/3/6 438/3/6
f 437/4/6 431/4/6 438/4/6
f 426/6/6 427/6/6 439/6/6
f 427/4/6 435/4/6 440/4/6
f 439/6/6 427/6/6 440/6/6
f 435/3/6 436/3/6 441/3/6
f 440/4/6 435/4/6 441/4/6
f 436/4/6 437/4/6 442/4/6
f 441/3/6 436/3/6 442/3/6
f 442/4/6 437/4/6 443/4/6
f 437/3/6 438/3/6 444/3/6
f 443/4/6 437/4/6 444/4/6
f 432/6/6 433/6/6 445/6/6
f 444/3/6 438/3/6 445/3/6
f 438/3/6 432/3/6 445/3/6
f 445/6/6 433/6/6 446/6/6
f 440/6/6 441/6/6 447/6/6
f 441/6/6 442/6/6 447/6/6
f 442/4/6 443/4/6 448/4/6
f 447/6/6 442/6/6 448/6/6
f 443/3/6 444/3/6 449/3/6
f 448/4/6 443/4/6 449/4/6
f 444/6/6 445/6/6 450/6/6
f 449/3/6 444/3/6 450/3/6
f 450/6/6 445/6/6 451/6/6
f 448/6/6 449/6/6 452/6/6
f 449/6/6 450/6/6 452/6/6
f 452/6/6 450/6/6 453/6/6
f 454/6/6 455/6/6 457/6/6
f 457/6/6 455/6/6 458/6/6
f 458/6/6 455/6/6 459/6/6
f 457/4/6 458/4/6 461/4/6
f 461/4/6 458/4/6 462/4/6
f 458/3/6 459/3/6 463/3/6
f 462/4/6 458/4/6 463/4/6
f 459/6/6 460/6/6 464/6/6
f 463/3/6 459/3/6 464/3/6
f 457/4/6 461/4/6 465/4/6
f 463/4/6 464/4/6 466/4/6
f 464/6/6 460/6/6 467/6/6
f 466/4/6 464/4/6 467/4/6
f 456/6/6 457/6/6 468/6/6
f 457/4/6 465/4/6 468/4/6
f 468/4/6 465/4/6 469/4/6
f 466/3/6 467/3/6 471/3/6
f 456/6/6 468/6/6 472/6/6
f 468/3/6 469/3/6 473/3/6
f 472/6/6 468/6/6 473/6/6
f 469/4/6 470/4/6 474/4/6
f 473/3/6 469/3/6 474/3/6
f 470/3/6 471/3/6 475/3/6
f 474/4/6 470/4/6 475/4/6
f 467/6/6 460/6/6 476/6/6
f 475/3/6 471/3/6 476/3/6
f 471/3/6 467/3/6 476/3/6
f 476/6/6 460/6/6 477/6/6
f 474/6/6 475/6/6 478/6/6
f 475/6/6 476/6/6 478/6/6
f 473/6/6 474/6/6 478/6/6
f 478/6/6 476/6/6 479/6/6
f 480/1/6 481/1/6 483/1/6
f 481/2/6 482/2/6 484/2/6
f 483/1/6 481/1/6 484/1/6
f 484/2/6 482/2/6 485/2/6
f 483/2/6 484/2/6 486/2/6
f 484/1/6 485/1/6 487/1/6
f 486/2/6 484/2/6 487/2/6
f 487/1/6 485/1/6 488/1/6
